<?xml version="1.0" standalone="no"?>
<!DOCTYPE svg PUBLIC "-//W3C//DTD SVG 20010904//EN"
 "http://www.w3.org/TR/2001/REC-SVG-20010904/DTD/svg10.dtd">
<svg version="1.0" xmlns="http://www.w3.org/2000/svg"
 width="256.000000pt" height="256.000000pt" viewBox="0 0 256.000000 256.000000"
 preserveAspectRatio="xMidYMid meet">
<metadata>
Created by potrace 1.11, written by Peter Selinger 2001-2013
</metadata>
<g transform="translate(0.000000,256.000000) scale(0.100000,-0.100000)"
fill="#000000" stroke="none">
<path d="M634 2108 c1 -7 5 -18 9 -24 4 -7 0 -15 -9 -18 -11 -4 -13 -13 -9
-27 6 -19 5 -20 -8 -8 -10 10 -12 19 -6 32 6 9 7 17 5 17 -3 0 -12 -12 -19
-27 -16 -31 -12 -51 12 -71 14 -11 13 -12 -5 -3 -29 14 -39 1 -14 -16 11 -8
20 -20 19 -26 0 -9 -2 -8 -6 1 -2 6 -10 9 -15 6 -7 -5 -8 -2 -3 6 6 9 1 10
-16 5 -13 -3 -19 -3 -13 2 6 4 10 16 8 26 -1 9 2 15 7 12 5 -4 6 1 3 9 -7 18
-25 11 -23 -7 3 -25 -1 -38 -11 -32 -6 4 -7 12 -4 18 4 7 3 8 -2 4 -5 -5 -9
-12 -9 -15 -1 -4 -7 -18 -14 -30 -7 -13 -10 -26 -7 -30 3 -3 6 1 6 9 1 8 7 3
14 -11 8 -14 12 -28 10 -32 -3 -5 0 -8 5 -8 6 0 11 6 11 13 0 6 5 4 11 -6 5
-9 7 -22 3 -29 -5 -8 -1 -9 12 -4 14 5 16 4 7 -5 -15 -15 -34 -3 -26 18 4 10
2 14 -4 10 -14 -9 -43 2 -43 15 0 5 5 6 12 2 7 -4 8 -3 4 5 -4 6 -12 9 -17 6
-5 -4 -12 1 -15 9 -5 14 -8 14 -29 0 -18 -12 -28 -13 -44 -5 -11 6 -23 11 -28
11 -4 -1 5 -8 20 -16 15 -8 25 -19 22 -24 -3 -5 -1 -11 5 -15 5 -3 10 3 10 14
0 12 4 21 9 21 6 0 8 -9 6 -19 -4 -21 20 -19 28 2 2 7 3 4 1 -6 -1 -9 3 -17 9
-16 25 3 38 -1 32 -11 -3 -5 -1 -10 4 -10 6 0 11 -5 11 -11 0 -8 -4 -8 -12 -1
-15 12 -62 -20 -50 -33 4 -5 1 -5 -7 0 -11 6 -8 12 12 27 15 11 27 24 27 30 0
6 -7 5 -16 -3 -12 -10 -20 -10 -35 -1 -21 13 -26 3 -7 -16 9 -9 9 -12 0 -12
-7 0 -12 5 -12 11 0 8 -5 7 -15 -1 -9 -7 -18 -10 -22 -7 -3 4 2 9 11 13 9 3
16 10 16 15 0 11 -23 7 -32 -5 -9 -13 -48 -15 -55 -3 -3 6 -1 7 5 3 6 -3 14
-1 18 6 4 7 4 10 -1 6 -4 -4 -16 -3 -27 3 -18 10 -19 9 -4 -20 12 -21 22 -29
36 -26 11 2 18 0 15 -5 -8 -14 -33 -6 -61 21 -23 21 -25 21 -14 3 10 -16 10
-25 1 -40 -11 -18 -12 -18 -6 3 7 27 -23 48 -46 31 -12 -8 -11 -9 2 -5 27 9
43 -8 23 -24 -10 -8 -15 -9 -12 -4 4 6 -2 11 -12 11 -10 0 -16 -6 -13 -13 3
-7 8 -12 11 -11 19 2 32 -3 32 -13 0 -8 -5 -8 -15 1 -8 7 -15 8 -15 2 0 -5
-12 -9 -26 -9 -17 0 -22 2 -13 8 7 4 18 5 24 1 5 -3 4 2 -4 11 -14 18 -26 23
-17 8 3 -5 -1 -11 -9 -15 -8 -3 -15 -13 -15 -21 0 -9 4 -14 9 -10 11 6 6 -34
-5 -44 -4 -3 -5 1 -1 11 9 26 -6 31 -24 6 -15 -19 -19 -20 -36 -8 -14 11 -15
11 -6 0 14 -15 -1 -55 -17 -45 -6 3 -7 -1 -4 -10 4 -9 3 -15 -2 -14 -30 5 -31
-5 -4 -31 17 -16 26 -30 20 -30 -6 0 -9 -4 -6 -9 9 -14 -22 -7 -37 9 -8 9 -8
11 0 6 19 -11 24 11 5 25 -9 7 -14 9 -10 5 4 -5 3 -15 -2 -21 -7 -8 -4 -20 10
-37 19 -24 19 -27 2 -39 -15 -12 -16 -12 -5 2 7 9 10 19 6 22 -3 4 -12 -1 -19
-11 -12 -16 -13 -15 -11 5 0 12 5 19 11 16 5 -3 6 -1 2 5 -4 6 -13 9 -21 5 -8
-3 -15 0 -15 6 0 6 -5 11 -11 11 -8 0 -8 -5 1 -15 15 -18 7 -19 -23 -4 -21 10
-21 10 -3 -5 19 -15 19 -16 2 -16 -16 0 -17 -2 -5 -17 8 -9 9 -14 2 -10 -8 5
-12 -60 -12 -260 -2 -257 -1 -268 18 -280 13 -8 22 -9 26 -2 5 6 12 6 22 -2
10 -9 17 -9 21 -2 8 12 44 14 36 1 -3 -4 2 -8 11 -8 9 0 14 4 11 9 -4 5 2 8
11 6 11 -1 17 -9 15 -19 -3 -16 -1 -16 22 -1 22 14 25 15 33 1 5 -9 20 -17 33
-20 14 -2 25 -5 25 -6 0 -1 10 -3 23 -6 15 -3 22 1 22 11 0 8 5 15 11 15 5 0
8 -4 5 -9 -4 -5 -3 -17 0 -25 6 -15 9 -15 30 -1 21 14 23 14 17 -2 -4 -9 -2
-14 3 -10 6 3 15 2 22 -2 15 -9 -6 -61 -25 -61 -7 0 -13 -3 -14 -7 -7 -53 -4
-69 12 -81 11 -7 19 -18 19 -24 0 -6 -10 -3 -21 8 -22 19 -22 19 -8 -4 8 -12
17 -22 22 -22 4 0 5 -4 2 -10 -4 -6 1 -7 12 -3 14 5 16 4 7 -8 -17 -22 -16
-62 2 -55 8 3 21 -5 30 -19 9 -14 20 -23 24 -20 5 3 12 0 16 -6 5 -8 3 -9 -6
-4 -10 6 -12 3 -7 -11 7 -18 6 -18 -6 -2 -8 10 -17 15 -20 11 -4 -3 -1 -13 6
-22 10 -14 10 -14 -5 -3 -10 8 -15 22 -12 38 3 17 0 24 -11 24 -17 0 -20 -16
-4 -26 8 -5 8 -9 -1 -14 -7 -5 -3 -13 15 -24 14 -9 29 -14 34 -11 5 2 12 -2
15 -11 5 -14 9 -14 24 -3 9 7 14 9 9 4 -4 -4 0 -16 8 -25 13 -14 13 -17 0 -17
-8 0 -11 5 -8 11 3 6 3 8 -2 4 -4 -4 -14 -3 -22 3 -9 9 -13 8 -13 0 0 -6 4
-11 10 -11 5 0 8 -6 6 -12 -1 -7 -1 -10 1 -6 2 3 15 4 29 2 13 -2 24 0 24 6 0
6 4 9 9 5 5 -3 12 -1 16 5 3 5 11 10 17 10 6 0 6 -6 -2 -15 -7 -9 -10 -18 -6
-22 3 -3 6 -1 6 6 0 7 3 10 8 7 4 -2 8 9 9 26 0 18 9 35 22 44 12 9 18 20 15
26 -5 8 -1 9 12 5 17 -6 17 -6 3 5 -9 7 -14 19 -11 27 3 9 0 11 -7 6 -7 -4
-10 -13 -7 -21 8 -21 -2 -17 -14 6 -6 11 -7 20 -3 19 22 -4 24 3 7 29 -12 19
-13 23 -2 15 12 -11 15 -8 15 17 0 17 -5 30 -10 30 -6 0 -8 3 -5 6 4 3 15 1
25 -5 15 -8 20 -7 20 4 0 8 -4 12 -8 9 -4 -2 -11 1 -15 8 -12 19 -12 48 -1 41
6 -4 8 1 4 12 -4 9 -2 23 3 31 9 9 6 18 -9 33 -13 13 -16 21 -8 25 9 3 8 8 -3
16 -13 10 -13 11 3 6 15 -5 19 0 16 20 0 4 5 11 13 16 10 8 10 9 -2 5 -8 -2
-14 -10 -12 -16 1 -7 -2 -10 -8 -6 -6 3 -7 11 -4 17 4 6 0 15 -7 20 -10 6 -7
7 10 3 15 -5 21 -3 17 3 -4 6 2 16 11 22 16 10 16 11 -2 5 -11 -4 -28 -8 -38
-10 -16 -4 -17 -2 -6 12 7 8 15 27 17 41 2 15 9 30 15 34 7 4 2 6 -11 5 -17
-1 -21 -6 -17 -22 5 -18 5 -18 -5 -2 -6 9 -9 21 -5 26 3 5 1 12 -5 16 -6 4 -7
13 -1 23 10 21 4 42 -14 42 -8 0 -20 9 -28 20 -8 11 -17 17 -22 12 -4 -4 -6 1
-2 10 3 9 0 18 -6 21 -7 3 -12 -5 -12 -18 0 -13 2 -22 5 -20 3 2 12 -1 20 -7
12 -8 12 -9 -2 -4 -11 3 -19 -2 -23 -14 -6 -18 -8 -19 -31 -4 -13 9 -24 13
-24 9 0 -4 -6 -3 -12 2 -19 15 -51 12 -66 -6 -11 -14 -12 -13 -3 5 6 12 7 25
3 29 -4 5 -1 5 7 0 10 -6 12 -4 7 6 -4 8 -1 6 7 -4 12 -15 16 -15 26 -3 7 8
14 23 15 33 2 10 9 18 17 18 8 0 13 -6 11 -13 -1 -8 2 -11 8 -7 8 5 8 11 0 20
-15 18 -47 15 -47 -5 0 -31 -3 -40 -14 -40 -5 0 -7 5 -4 10 4 6 3 10 -2 9 -19
-3 -33 2 -33 12 0 6 7 8 18 4 13 -5 14 -3 5 6 -16 16 -35 1 -28 -22 4 -10 2
-19 -4 -19 -6 0 -8 -8 -4 -17 3 -10 2 -14 -3 -10 -12 11 -13 97 -1 90 6 -3 7
-1 3 6 -12 18 -27 1 -20 -22 3 -12 3 -19 -1 -15 -4 4 -17 2 -28 -3 -23 -13
-37 2 -30 32 7 25 23 14 18 -11 -2 -12 0 -18 6 -15 5 4 7 10 4 15 -3 4 1 10 7
12 8 3 4 9 -10 17 -19 10 -21 15 -11 27 9 11 9 17 0 28 -10 11 -8 17 6 26 17
11 17 11 0 6 -25 -8 -19 25 8 42 l20 13 -20 -6 c-33 -12 -66 -14 -60 -5 3 5
11 7 18 4 7 -2 13 4 14 16 1 12 -2 18 -9 14 -7 -4 -8 -2 -4 4 4 6 13 9 22 5
12 -4 12 -8 2 -22 -12 -14 -11 -14 4 -3 9 8 22 11 28 7 6 -4 9 -1 8 7 -2 7 2
12 9 11 8 -2 10 4 6 15 -6 15 -5 16 13 2 15 -11 16 -11 7 0 -19 21 -16 35 4
19 11 -10 14 -10 9 -1 -4 7 -1 12 9 12 9 0 13 5 10 10 -5 8 -12 7 -23 -2 -12
-10 -11 -6 3 17 26 41 29 43 21 19 -7 -24 17 -53 29 -34 3 5 1 10 -4 10 -6 0
-11 4 -11 8 0 5 6 9 13 9 9 0 13 -10 11 -26 -3 -35 -2 -35 -17 -23 -10 8 -16
6 -25 -9 -7 -11 -8 -19 -2 -19 5 0 10 4 10 8 0 5 14 9 30 9 17 0 30 -4 30 -9
0 -5 -5 -6 -11 -2 -18 11 7 -29 40 -65 17 -18 35 -30 41 -26 16 10 12 -7 -6
-19 -13 -10 -13 -12 4 -12 17 0 19 6 16 42 -2 33 1 44 14 49 14 5 15 4 5 -6
-18 -18 -16 -34 1 -20 10 8 16 9 21 1 8 -13 35 -13 35 1 0 5 -4 8 -9 5 -15
-10 -31 18 -20 34 8 12 9 11 7 -4 -3 -22 29 -31 49 -14 9 7 13 7 13 -1 0 -6
-6 -11 -12 -11 -9 0 -8 -3 2 -10 16 -10 36 13 25 30 -3 6 1 7 10 4 11 -5 14
-2 9 12 -4 11 -4 16 1 12 4 -4 8 -18 9 -30 1 -15 8 -24 21 -25 11 -2 14 0 8 3
-7 3 -13 10 -13 15 0 5 10 3 23 -6 13 -8 27 -12 32 -8 4 5 5 3 2 -3 -4 -7 0
-15 9 -18 9 -4 14 -9 11 -13 -4 -3 -13 0 -22 7 -8 7 -15 8 -15 2 0 -5 7 -15
15 -22 12 -10 18 -10 30 0 9 7 18 10 22 7 3 -4 -6 -12 -20 -18 -15 -7 -24 -16
-21 -21 3 -4 10 -5 16 -2 6 4 8 2 5 -3 -9 -14 19 -37 33 -28 25 15 29 -8 5
-32 -14 -14 -23 -29 -19 -32 3 -3 13 3 21 14 17 22 15 15 -6 -27 -8 -16 -18
-28 -23 -28 -5 0 -6 -5 -3 -10 4 -6 11 -7 17 -4 7 4 8 2 4 -5 -4 -6 -11 -9
-16 -6 -5 3 -11 1 -15 -5 -3 -5 0 -10 7 -10 8 0 6 -5 -5 -11 -13 -7 -22 -7
-31 0 -9 8 -13 7 -13 -4 0 -8 4 -12 9 -9 7 5 13 -34 9 -65 -2 -8 2 -10 11 -5
11 6 11 5 0 -8 -10 -12 -10 -17 -1 -20 9 -3 9 -8 0 -24 -11 -16 -12 -16 -7 -1
4 12 2 16 -6 11 -7 -4 -8 -3 -4 4 4 7 2 12 -3 12 -14 0 -14 -6 0 -31 8 -16 13
-18 25 -8 8 6 17 9 21 5 3 -3 2 -6 -4 -6 -6 0 -10 -11 -9 -24 0 -13 5 -22 9
-19 5 3 6 12 3 20 -3 8 -1 11 4 8 6 -3 10 0 10 7 0 9 3 9 10 -2 13 -20 12 -39
-1 -20 -9 13 -10 13 -6 0 2 -8 8 -15 13 -16 5 0 17 -4 27 -9 10 -4 20 -5 23
-2 3 3 -4 8 -15 12 -12 3 -21 11 -21 17 0 6 3 8 7 5 3 -4 13 -1 22 6 14 11 14
10 2 -5 -12 -16 -11 -18 8 -18 14 0 20 4 15 11 -4 8 0 8 15 0 12 -7 27 -9 33
-5 7 5 8 3 3 -6 -6 -10 -4 -12 9 -7 13 5 17 3 13 -7 -4 -10 -1 -13 9 -9 8 3
22 -1 32 -8 16 -13 16 -13 2 5 -14 18 -13 18 10 11 l25 -8 -25 22 -25 23 25
-16 c29 -19 44 -21 34 -4 -5 7 -3 8 7 2 24 -15 41 -14 35 3 -6 13 -4 14 10 3
14 -12 13 -15 -10 -27 -31 -16 -32 -19 -7 -19 11 0 17 4 15 8 -3 4 -1 8 5 8 5
0 11 -3 14 -7 2 -5 2 -2 1 5 -2 6 2 12 8 12 7 0 7 4 -1 13 -8 10 -7 14 4 14 8
0 12 -4 10 -8 -3 -4 2 -10 11 -13 22 -9 26 -8 18 6 -4 7 -3 8 5 4 6 -4 18 -2
26 4 8 7 15 8 15 3 0 -6 -10 -14 -22 -20 l-22 -10 22 -5 c12 -4 20 -2 16 3 -9
15 8 10 30 -9 20 -16 20 -16 6 2 -14 18 -13 18 10 12 20 -6 22 -5 10 4 -13 10
-13 11 1 7 9 -3 22 0 29 6 10 10 10 8 1 -10 -17 -33 -13 -38 9 -12 10 13 19
19 20 14 0 -6 -6 -17 -12 -24 -10 -10 -8 -10 10 0 19 12 24 12 33 -1 9 -13 10
-12 5 3 -3 9 0 17 6 17 6 0 5 6 -3 16 -9 12 -3 10 21 -5 38 -23 60 -27 60 -11
0 5 -6 7 -14 4 -8 -3 -17 -1 -21 5 -3 7 0 8 9 5 10 -4 16 -1 16 7 1 10 4 9 10
-3 8 -13 17 -15 39 -8 25 7 29 6 24 -8 -4 -10 -3 -14 2 -10 4 4 15 2 24 -5 14
-10 14 -10 3 4 -10 14 -9 17 9 22 13 4 18 10 13 18 -5 8 -3 10 5 4 9 -5 10
-10 2 -18 -17 -17 -13 -31 4 -17 11 9 18 10 29 1 11 -9 15 -8 20 5 3 9 4 20 1
25 -4 5 2 6 11 2 13 -5 15 -3 9 8 -4 8 -5 11 0 7 4 -4 15 -2 23 5 13 9 14 9 8
0 -4 -7 -2 -13 3 -13 15 0 14 23 -1 39 -7 7 -8 12 -3 11 21 -5 27 1 16 14 -15
18 5 56 29 57 10 0 8 3 -5 9 -13 6 -15 9 -5 9 9 1 11 4 5 9 -29 21 -38 42 -24
58 8 9 9 18 3 22 -11 8 -12 22 -1 40 5 6 5 12 0 12 -4 0 -2 4 6 9 12 8 12 13
-3 35 -9 14 -22 26 -28 26 -6 0 -1 -12 13 -27 13 -14 18 -23 10 -18 -9 5 -12
4 -7 -3 5 -8 1 -10 -11 -6 -15 5 -16 4 -3 -5 13 -9 13 -11 0 -11 -12 0 -12 -2
-1 -9 9 -6 10 -11 2 -15 -6 -4 -8 -12 -5 -18 4 -6 2 -8 -3 -5 -6 4 -10 -1 -9
-10 0 -10 -6 -18 -14 -19 -8 0 -9 1 -2 3 6 3 12 9 12 15 0 5 -7 8 -15 4 -8 -3
-15 -1 -15 4 0 5 9 12 20 15 11 3 20 11 20 16 0 11 -14 12 -24 2 -10 -10 -36
-13 -36 -3 0 10 31 24 50 21 11 -1 9 3 -5 15 -14 11 -16 15 -5 14 27 -4 41 0
35 10 -3 5 -11 8 -18 6 -7 -1 -9 -1 -4 1 4 3 4 9 1 14 -3 6 -11 5 -20 -2 -10
-8 -14 -8 -14 0 0 12 2 13 42 15 28 2 52 16 27 16 -10 1 -9 3 3 11 10 5 15 16
11 25 -5 13 -1 15 14 10 13 -4 26 1 38 14 22 24 48 26 65 5 11 -13 10 -14 -5
-9 -13 5 -16 4 -11 -4 4 -7 14 -12 22 -12 8 0 12 -5 9 -10 -5 -8 -11 -8 -19
-1 -9 7 -17 7 -26 -2 -7 -6 -10 -7 -7 -1 3 6 0 11 -8 11 -8 0 -12 -4 -9 -9 3
-5 0 -7 -8 -6 -7 2 -12 -5 -12 -14 1 -10 -3 -16 -10 -15 -6 1 -10 -4 -8 -12 3
-12 0 -12 -12 -2 -10 8 -16 9 -21 1 -3 -5 1 -10 10 -10 10 0 13 -5 9 -12 -5
-7 -3 -8 6 -3 10 6 12 4 6 -10 -5 -14 -4 -16 7 -7 8 7 18 8 22 4 5 -4 4 -1 0
7 -6 11 -4 13 9 8 9 -4 15 -3 12 2 -3 5 2 15 11 22 15 12 16 12 9 -6 -6 -17
-5 -18 6 -7 11 11 10 16 -5 27 -11 7 -14 16 -8 19 5 4 16 -2 23 -12 13 -18 31
-22 43 -10 4 4 14 4 23 1 14 -4 15 -3 2 5 -8 6 -17 9 -21 6 -9 -5 -16 16 -14
43 1 12 -4 24 -12 27 -7 3 -13 10 -13 16 0 5 9 2 19 -7 11 -9 17 -23 13 -32
-5 -13 -3 -14 9 -4 8 6 24 11 34 9 11 -2 24 2 28 8 6 7 7 4 3 -6 -3 -10 -2
-18 3 -18 4 0 8 -7 8 -15 0 -9 -5 -14 -11 -12 -6 2 -11 9 -11 14 0 6 -4 15 -9
20 -5 4 -6 3 -3 -3 4 -7 -2 -10 -18 -8 -31 3 -33 -11 -2 -21 42 -13 52 -14 66
-5 12 7 12 11 2 24 -10 11 -10 16 -2 16 6 0 14 -7 18 -15 5 -13 8 -13 20 5 8
11 19 18 24 14 5 -3 8 0 7 8 -2 7 5 12 14 12 10 -1 14 4 11 13 -3 7 -2 13 3
11 19 -5 52 14 57 32 3 11 2 18 -2 15 -4 -2 -8 2 -8 9 0 8 7 12 15 8 10 -3 13
-1 8 6 -4 7 -2 12 4 12 11 0 11 -5 -6 -46 -3 -6 6 -18 20 -28 17 -10 23 -22
20 -34 -4 -10 -2 -13 3 -7 4 6 17 12 28 13 11 2 23 9 27 15 6 9 8 8 8 -1 0 -7
-11 -18 -25 -24 -27 -12 -35 -31 -10 -22 8 4 15 1 15 -4 0 -6 -8 -13 -17 -15
-17 -4 -17 -5 0 -6 20 -1 23 -21 3 -21 -8 0 -17 -4 -20 -9 -4 -5 4 -7 16 -4
17 3 19 2 9 -5 -9 -7 -10 -12 -2 -16 6 -4 11 -12 11 -18 0 -6 -7 -5 -17 3 -16
13 -17 12 -5 -3 9 -11 10 -18 2 -23 -6 -3 -8 -10 -5 -15 3 -4 -2 -13 -9 -19
-11 -10 -17 -8 -25 6 -6 10 -10 14 -11 8 0 -18 14 -32 32 -32 9 0 15 4 12 9
-3 4 2 5 10 2 14 -6 21 5 17 29 0 4 5 7 11 7 9 0 8 4 -2 10 -12 8 -12 10 -1
10 10 0 11 3 2 13 -11 14 -8 47 5 69 4 6 3 8 -2 5 -5 -3 -10 3 -10 14 0 10 4
19 8 19 4 0 8 -7 8 -15 0 -8 6 -15 13 -15 8 0 7 -4 -3 -11 -12 -8 -12 -12 -2
-16 10 -4 9 -8 -5 -19 -17 -12 -17 -13 2 -10 11 2 14 1 8 -1 -18 -6 -16 -20 3
-31 15 -8 15 -10 -1 -15 -9 -4 -13 -11 -10 -17 3 -5 1 -10 -4 -10 -6 0 -11 -5
-11 -11 0 -6 6 -9 13 -6 8 3 14 -1 14 -8 0 -10 -5 -11 -17 -5 -28 15 -56 -14
-29 -30 7 -5 3 -8 -12 -7 -13 0 -33 -3 -44 -7 -16 -6 -17 -6 -5 3 12 9 11 11
-8 11 -13 0 -20 -4 -17 -10 3 -5 1 -10 -5 -10 -6 0 -8 -4 -5 -10 3 -5 1 -10
-5 -10 -7 0 -9 7 -6 15 3 8 9 22 12 30 3 8 1 15 -6 15 -6 0 -8 -5 -5 -10 3 -6
-1 -13 -9 -16 -9 -3 -13 -10 -10 -15 3 -5 -2 -6 -10 -3 -10 4 -16 1 -16 -7 0
-7 -3 -9 -7 -6 -3 4 -13 1 -22 -6 -14 -11 -14 -10 -2 6 12 16 10 17 -27 17
-23 0 -43 4 -47 10 -8 13 -32 2 -32 -15 0 -8 4 -15 9 -15 4 0 8 7 8 16 0 8 5
12 10 9 6 -4 8 -10 5 -15 -3 -5 6 -7 19 -4 14 2 27 0 30 -4 3 -5 -5 -8 -17 -7
-12 1 -32 -1 -43 -6 -13 -4 -26 -3 -34 4 -10 9 -11 9 -6 0 3 -6 3 -13 -1 -16
-5 -2 -2 -2 5 -1 6 2 12 -1 12 -5 0 -11 -29 -23 -40 -16 -5 3 -12 0 -16 -6 -4
-8 -3 -9 4 -5 7 4 12 2 12 -4 0 -6 4 -9 9 -6 5 3 12 -1 15 -10 9 -23 7 -31 -4
-14 -5 8 -12 11 -16 7 -4 -3 -1 -14 7 -24 9 -11 10 -14 2 -9 -8 4 -13 1 -13
-9 0 -9 4 -14 8 -11 7 4 8 -29 1 -44 -7 -15 -3 -36 9 -45 11 -9 9 -11 -7 -11
-11 0 -17 5 -14 10 3 5 1 6 -6 2 -6 -4 -9 -11 -6 -16 3 -4 -1 -11 -7 -14 -7
-4 -3 -4 10 -2 23 4 23 4 6 -21 -15 -23 -15 -25 -1 -20 9 3 19 1 23 -5 4 -7 3
-8 -5 -4 -6 4 -14 1 -17 -8 -3 -8 -13 -12 -22 -10 -14 5 -14 3 1 -6 15 -10 16
-14 5 -27 -12 -14 -11 -15 9 -5 31 17 41 15 15 -4 -23 -16 -29 -34 -11 -34 5
0 7 6 3 13 -5 8 -2 8 9 -2 18 -15 23 -26 7 -16 -5 3 -10 1 -10 -5 0 -7 -6 -10
-14 -7 -16 6 -10 -29 7 -40 5 -3 7 -1 3 5 -3 6 -1 14 6 18 7 4 10 3 5 -1 -4
-5 1 -18 10 -29 17 -20 17 -20 -1 -6 -18 14 -19 13 -13 -2 9 -24 2 -23 -24 5
l-23 22 17 -27 c16 -26 15 -33 -6 -29 -5 1 -6 -3 -2 -9 5 -8 11 -7 21 1 11 9
14 9 14 0 0 -7 5 -9 13 -5 7 4 9 3 4 -2 -5 -5 -14 -9 -20 -9 -6 0 -12 -17 -12
-37 -1 -20 2 -35 7 -32 8 5 12 -10 9 -33 -1 -7 5 -13 14 -13 9 0 13 -5 10 -11
-4 -6 2 -5 13 2 11 7 18 19 15 26 -7 17 -23 17 -19 0 1 -6 1 -9 -1 -4 -3 4
-10 4 -16 0 -7 -3 -9 -3 -5 2 4 4 3 15 -1 24 -6 10 -4 21 5 29 13 12 14 10 9
-11 -6 -21 -3 -24 19 -22 19 2 23 -1 19 -13 -5 -11 -3 -13 8 -7 11 6 12 5 2
-6 -7 -7 -13 -20 -13 -28 1 -14 3 -13 14 2 7 9 18 17 24 17 6 0 12 6 15 13 2
6 4 0 3 -15 -1 -18 -5 -23 -12 -17 -11 9 -24 2 -24 -13 0 -5 6 -8 13 -7 27 3
38 -1 31 -13 -4 -7 -3 -10 1 -5 13 11 13 47 1 40 -6 -4 -5 0 1 9 7 8 9 19 5
23 -4 5 -1 5 6 1 7 -4 15 -1 18 8 3 9 10 14 14 11 4 -3 10 2 14 10 8 22 31 18
44 -8 10 -20 11 -20 9 -2 -3 28 -37 47 -57 32 -13 -10 -13 -10 -2 5 8 9 11 22
8 27 -4 6 5 7 25 1 26 -8 29 -7 19 5 -10 12 -10 18 0 30 7 8 17 15 23 15 7 0
7 -4 -1 -12 -7 -7 -12 -16 -12 -22 0 -5 7 -1 15 10 12 17 12 21 -3 32 -16 12
-15 15 7 33 12 10 28 16 34 12 6 -3 7 -1 3 6 -6 9 -13 9 -30 -3 -31 -20 -59 5
-33 30 14 14 7 26 -8 14 -13 -11 -18 -11 -28 0 -10 10 -9 11 2 5 9 -5 19 -2
27 9 7 10 15 17 18 17 23 -3 27 1 21 17 -4 9 -8 22 -9 29 -1 7 -6 16 -11 20
-4 4 -5 2 0 -6 6 -10 4 -12 -5 -6 -9 5 -11 4 -6 -3 5 -8 1 -10 -10 -5 -15 5
-15 7 0 15 12 7 14 14 7 27 -8 14 -6 18 7 18 9 0 22 -4 28 -9 8 -5 14 -3 18 8
5 14 9 14 23 3 9 -8 14 -9 10 -3 -11 19 19 24 41 8 15 -10 23 -11 28 -3 4 8 3
9 -5 5 -6 -4 -14 -1 -17 7 -6 16 -33 19 -50 5 -8 -5 -14 -3 -17 6 -4 9 -1 18
5 22 7 5 8 2 3 -6 -6 -9 -4 -12 6 -8 8 3 22 9 32 13 9 4 17 3 17 -3 0 -5 7
-13 16 -16 8 -3 13 -2 10 3 -8 12 20 22 39 15 11 -5 12 -11 4 -27 -9 -20 -9
-20 4 -4 8 9 19 17 26 17 6 0 11 4 11 10 0 5 -6 7 -14 4 -18 -7 -30 12 -15 22
8 4 9 3 5 -4 -5 -8 0 -11 16 -8 13 3 23 5 23 6 0 1 8 3 18 5 9 2 15 0 13 -4
-2 -3 7 -12 21 -18 22 -10 24 -10 18 5 -3 9 -3 13 1 9 4 -4 14 -1 22 6 13 9
14 9 8 -1 -6 -11 0 -14 20 -11 4 0 11 -5 15 -13 7 -10 9 -10 9 2 0 13 1 13 10
0 13 -20 11 589 -2 613 -5 10 -15 16 -21 14 -15 -5 -69 21 -63 31 3 4 -5 9
-16 9 -20 2 -20 1 -2 -12 11 -8 15 -15 10 -15 -5 0 -3 -7 4 -15 9 -10 9 -15 1
-15 -6 0 -11 6 -11 13 0 8 -4 7 -10 -3 -5 -8 -10 -10 -10 -5 0 6 5 16 12 23
15 15 4 15 -25 1 -20 -9 -20 -9 -4 4 14 12 15 16 4 26 -8 6 -17 9 -21 6 -3 -3
-2 1 4 7 13 16 13 26 -2 31 -7 2 -5 3 5 1 9 -1 15 2 11 7 -3 5 1 9 8 9 8 0 6
5 -5 11 -9 6 -14 15 -11 21 4 6 2 8 -4 4 -6 -3 -13 -2 -17 4 -4 6 -10 8 -14 5
-5 -2 -7 9 -5 25 4 30 -9 40 -22 18 -4 -6 -3 -8 4 -4 7 4 9 -3 6 -21 -6 -34
-20 -50 -20 -23 0 11 4 20 9 20 4 0 5 5 2 10 -5 7 -11 8 -19 1 -8 -7 -12 -4
-13 12 -2 15 0 18 6 9 6 -11 10 -10 15 4 3 9 4 19 1 22 -3 3 -5 0 -5 -5 0 -6
-7 -10 -15 -9 -18 3 -32 16 -17 16 7 0 12 5 12 12 0 9 -3 9 -12 0 -17 -17 -26
-15 -31 6 -4 16 -5 16 -6 0 0 -10 8 -22 19 -28 11 -6 20 -16 19 -23 0 -9 -2
-9 -6 1 -2 6 -9 12 -14 12 -5 0 -18 9 -29 20 -21 21 -46 28 -34 8 5 -7 3 -8
-5 -4 -9 6 -8 13 5 27 9 11 14 22 11 26 -4 3 -7 1 -7 -5 0 -7 -5 -12 -11 -12
-5 0 -7 5 -3 12 4 6 3 8 -4 4 -6 -3 -18 4 -26 16 -9 12 -19 19 -22 15 -4 -4
-17 1 -28 10 -20 17 -20 17 -7 1 8 -11 9 -18 3 -18 -6 0 -17 9 -25 20 -8 11
-17 17 -20 13 -4 -3 -7 -1 -7 4 0 6 6 13 13 16 6 3 -1 5 -18 5 -48 -1 -57 1
-51 11 4 5 17 8 31 7 13 -2 22 1 19 6 -3 5 -12 7 -20 4 -8 -3 -14 -2 -14 2 0
4 -12 16 -27 26 -14 11 -23 13 -18 6 5 -7 -4 -5 -18 6 -15 10 -29 27 -33 37
-4 13 -12 17 -25 14 -10 -3 -17 -1 -14 3 3 5 1 11 -5 15 -5 3 -10 1 -10 -6 0
-7 -3 -10 -6 -7 -3 4 0 16 6 28 9 17 9 25 0 34 -8 8 -10 7 -5 -4 4 -11 -1 -16
-15 -17 -11 -1 -18 2 -16 6 3 4 -1 8 -9 8 -8 0 -12 -4 -9 -9 3 -4 0 -8 -6 -8
-6 0 -8 -4 -5 -10 6 -9 -8 -15 -29 -11 -5 1 -6 -5 -3 -12 4 -11 0 -13 -14 -10
-18 5 -19 6 -2 18 10 7 21 11 25 9 5 -3 8 -1 8 4 0 5 -13 9 -29 8 -16 0 -27
-4 -24 -9 7 -12 -18 -38 -31 -30 -6 4 -5 -1 3 -10 11 -14 11 -18 -3 -23 -10
-4 -15 -13 -12 -21 3 -8 -3 -18 -17 -24 l-22 -10 23 5 c17 3 22 0 22 -16 0
-18 2 -19 18 -7 15 13 16 12 3 -3 -7 -10 -10 -18 -5 -18 5 0 3 -4 -5 -9 -12
-8 -12 -12 -2 -25 11 -13 11 -16 0 -16 -8 0 -5 -6 7 -15 18 -14 18 -16 1 -29
-13 -10 -15 -15 -5 -19 7 -2 10 -7 7 -11 -4 -4 -14 0 -22 9 -14 14 -16 13 -14
-3 1 -15 8 -18 36 -15 19 2 41 9 48 15 9 7 13 7 13 -1 0 -6 -6 -11 -12 -11 -9
0 -8 -3 2 -9 8 -6 18 -7 22 -5 4 3 5 -2 2 -10 -5 -14 -8 -14 -21 -1 -17 17
-33 20 -33 4 0 -5 4 -8 9 -4 5 3 12 1 16 -5 3 -5 15 -15 27 -21 14 -8 18 -8
14 0 -4 6 -3 18 2 27 8 15 10 15 15 0 5 -11 3 -15 -5 -10 -7 4 -8 3 -4 -5 6
-9 11 -9 22 0 7 6 11 15 8 20 -3 5 2 6 12 2 15 -5 15 -7 0 -15 -9 -5 -16 -14
-16 -20 0 -9 3 -9 12 0 18 18 32 14 17 -5 -16 -18 -16 -23 2 -34 8 -4 20 -3
28 4 11 9 15 9 18 0 6 -18 20 -16 20 2 0 8 -5 11 -10 8 -6 -4 -7 -1 -1 8 6 10
0 9 -18 -3 -26 -17 -27 -17 -25 2 1 15 7 19 22 15 11 -3 14 -2 7 1 -19 9 -34
42 -22 49 6 4 10 3 9 -2 -3 -19 2 -34 10 -29 5 3 11 -1 15 -9 3 -8 11 -13 18
-11 7 1 10 1 6 -1 -3 -2 5 -15 19 -29 14 -14 22 -28 19 -32 -4 -3 -11 0 -15 7
-6 8 -11 9 -15 3 -3 -6 -2 -13 4 -17 5 -3 10 -12 10 -18 0 -7 -4 -6 -10 3 -9
15 -11 13 -14 -12 -2 -18 -40 -19 -53 -1 -9 12 -13 13 -13 4 0 -8 8 -20 18
-28 9 -8 11 -12 5 -8 -16 8 -17 -7 -2 -22 9 -9 7 -11 -7 -9 -11 2 -18 10 -16
20 2 9 -1 16 -6 16 -17 0 -21 -13 -11 -33 7 -13 7 -17 1 -13 -6 3 -18 -4 -26
-16 -9 -12 -16 -17 -16 -10 0 7 -4 11 -9 8 -5 -3 -7 -16 -5 -29 5 -22 4 -22
-5 -1 -10 23 -31 41 -31 27 0 -5 6 -15 13 -22 10 -11 9 -12 -3 -5 -8 5 -21 9
-28 10 -22 4 -26 13 -12 29 11 13 15 13 21 3 7 -10 9 -10 9 2 1 12 3 11 11 -3
6 -9 15 -15 20 -11 17 10 -23 32 -49 28 -16 -3 -21 -1 -16 7 4 8 3 9 -5 5 -6
-4 -8 -12 -5 -18 5 -7 2 -8 -5 -4 -7 5 -10 15 -7 25 4 11 1 10 -9 -4 -9 -11
-18 -19 -20 -17 -18 9 -25 -1 -9 -14 13 -11 15 -17 6 -20 -6 -3 -10 -9 -7 -14
3 -5 -3 -7 -12 -6 -10 2 -21 -2 -25 -8 -5 -8 -11 -7 -20 3 -11 11 -11 13 1 6
10 -6 12 -4 6 5 -6 9 -4 11 5 5 9 -6 11 -4 5 5 -6 9 -4 11 5 5 9 -6 11 -4 5 6
-7 12 -6 12 7 1 9 -8 19 -9 22 -4 3 6 -4 12 -15 15 -12 3 -18 10 -14 16 4 7 0
8 -11 4 -10 -4 -13 -8 -7 -10 8 -3 6 -11 -5 -24 -16 -18 -18 -18 -29 -2 -7 9
-13 12 -13 6 0 -7 5 -15 10 -18 6 -4 8 -11 4 -16 -3 -6 -12 -3 -21 8 -13 17
-13 17 -4 -3 10 -21 6 -34 -10 -34 -5 0 -6 8 -3 18 5 15 4 15 -6 -1 -14 -22
-13 -24 24 -31 24 -4 27 -2 23 14 -4 14 0 18 15 15 12 -3 23 -7 27 -11 3 -4
-2 -4 -12 -1 -13 5 -17 3 -15 -5 3 -7 13 -13 23 -13 10 0 19 -7 20 -16 2 -9
-3 -16 -11 -16 -10 0 -11 4 -4 12 8 9 4 13 -13 13 -13 0 -24 -6 -24 -14 0 -8
4 -14 9 -14 4 0 8 -5 8 -11 0 -8 -5 -8 -15 1 -8 7 -13 16 -10 20 3 5 1 11 -5
15 -16 10 -12 -31 5 -45 8 -7 15 -17 15 -23 0 -6 -7 -1 -16 11 -8 12 -20 22
-27 22 -8 0 -8 -3 1 -12 7 -7 12 -16 12 -22 0 -5 -6 -1 -14 10 -12 15 -17 17
-27 7 -11 -11 -10 -13 4 -13 9 0 17 -5 17 -11 0 -7 -9 -5 -24 5 -15 10 -27 12
-31 6 -3 -6 -2 -10 2 -10 5 0 17 -6 27 -13 16 -12 16 -14 2 -14 -9 0 -16 4
-16 9 0 4 -7 8 -16 8 -8 0 -12 -4 -9 -10 3 -5 1 -10 -5 -10 -6 0 -9 -4 -5 -10
3 -5 13 -6 22 -3 10 4 8 -2 -8 -18 -13 -13 -27 -23 -31 -22 -11 4 -10 -25 1
-31 5 -3 11 1 15 9 3 8 10 15 16 15 6 0 1 -10 -10 -22 -18 -20 -22 -21 -31 -8
-8 12 -9 10 -4 -7 4 -16 1 -23 -15 -28 -11 -4 -18 -11 -15 -16 4 -5 -2 -6 -12
-2 -16 6 -17 5 -3 -12 8 -10 10 -16 3 -12 -6 4 -13 2 -15 -5 -3 -7 -10 -8 -21
-2 -11 7 -13 14 -7 24 8 12 10 12 10 -4 0 -22 13 -14 16 10 1 9 0 13 -3 10 -8
-8 -44 13 -39 23 3 4 -1 8 -9 8 -13 0 -12 -3 1 -18 9 -10 14 -26 10 -35 -4
-10 1 -22 11 -30 17 -13 17 -14 -1 -7 -13 4 -17 3 -12 -5 4 -7 2 -12 -4 -12
-7 0 -10 6 -7 13 2 6 0 20 -5 31 -7 14 -7 16 2 11 9 -6 9 -2 1 14 -16 30 -21
26 -17 -13 2 -31 0 -34 -16 -25 -10 5 -18 12 -18 15 0 3 4 3 8 0 4 -2 9 5 9
17 2 16 0 18 -7 8 -12 -21 -38 -22 -51 -3 -10 16 -10 15 -5 0 3 -10 1 -18 -4
-18 -19 0 -19 19 0 43 16 20 17 27 8 33 -7 4 -10 4 -6 -1 4 -4 -3 -22 -16 -39
-15 -19 -22 -40 -20 -55 l4 -25 -19 23 c-13 15 -27 20 -44 17 -20 -3 -24 -1
-20 10 8 22 -20 13 -34 -11 -15 -24 -17 -11 -3 16 14 24 -5 26 -19 2 -6 -10
-11 -13 -11 -6 0 6 5 15 10 18 6 3 10 14 10 22 0 14 -4 13 -20 -5 -12 -12 -26
-22 -33 -22 -7 0 -4 5 6 11 9 6 14 15 11 21 -4 7 -2 8 4 4 7 -4 12 -2 12 4 0
7 8 9 22 4 20 -6 21 -5 9 10 -18 22 -24 21 -55 -11 -16 -15 -24 -20 -20 -10 7
20 74 63 92 59 6 -2 12 2 12 8 0 6 -5 8 -12 4 -7 -5 -9 -2 -5 9 6 17 -15 41
-27 30 -4 -4 -4 1 0 10 5 13 10 15 17 8 14 -14 27 -14 27 0 0 5 -4 8 -9 4 -5
-3 -16 4 -24 16 -9 13 -17 16 -22 10 -3 -6 -1 -11 6 -11 10 0 10 -3 1 -12 -16
-16 -15 -41 2 -35 9 4 13 -2 12 -16 -1 -21 -26 -38 -26 -17 0 6 5 8 10 5 6 -3
10 -2 10 4 0 5 -9 13 -20 16 -16 5 -18 10 -10 25 13 24 13 27 -2 27 -7 0 -17
2 -23 3 -20 5 -36 0 -30 -10 3 -6 -1 -7 -10 -4 -11 5 -14 2 -9 -10 3 -9 4 -16
1 -16 -3 0 -7 7 -11 15 -3 10 5 20 25 30 17 9 27 21 24 28 -4 7 2 2 13 -10 16
-18 21 -20 26 -8 4 13 -34 64 -49 65 -3 0 -7 0 -10 0 -3 0 -1 10 5 23 9 18 9
20 -2 7 -18 -21 -42 -25 -35 -6 4 9 1 18 -5 22 -7 4 -8 3 -4 -4 4 -7 2 -12 -5
-12 -8 0 -9 -3 0 -13 6 -8 7 -18 3 -22 -4 -5 -2 -5 4 -2 15 9 38 -19 28 -34
-4 -8 -3 -9 4 -5 7 4 12 2 12 -3 0 -6 -5 -11 -12 -11 -6 0 -21 -8 -32 -17 -18
-16 -18 -15 2 11 12 16 22 34 22 40 0 6 -7 2 -15 -8 -20 -27 -42 -8 -26 22 7
13 7 23 2 27 -11 6 -26 -32 -23 -55 3 -13 1 -13 -7 -1 -6 9 -6 21 0 32 15 29
10 36 -9 12 -13 -17 -20 -20 -32 -12 -12 9 -12 10 4 5 14 -5 17 -2 12 9 -3 9
-2 13 4 10 6 -3 10 -1 10 5 0 7 7 10 15 6 14 -5 16 -1 14 22 0 4 10 10 23 14
l23 6 -23 1 c-16 1 -21 5 -16 14 5 8 2 7 -9 -2 -12 -9 -14 -17 -7 -26 7 -8 5
-12 -5 -12 -8 0 -12 4 -9 8 2 4 -10 6 -28 5 -17 -1 -34 -8 -36 -16 -3 -8 0
-10 8 -5 9 6 11 4 5 -4 -5 -9 -10 -10 -18 -2 -8 8 -8 14 1 23 21 21 13 32 -10
12 -12 -10 -19 -14 -15 -8 4 7 -5 11 -22 11 -20 0 -28 -4 -24 -14 3 -7 0 -13
-7 -13 -6 0 -9 4 -6 9 3 5 -2 15 -11 22 -15 12 -16 12 -10 -6 6 -18 6 -19 -6
-3 -11 14 -16 15 -27 5 -10 -9 -11 -9 -6 1 6 11 -5 17 -27 13 -4 0 -6 5 -5 11
2 7 -3 12 -9 10 -15 -2 -16 7 -3 28 8 13 10 12 10 -4 0 -11 3 -16 6 -13 4 3
16 1 28 -5 11 -7 25 -11 29 -10 5 1 6 -2 2 -7 -3 -6 3 -8 15 -6 13 3 18 0 14
-7 -4 -7 -2 -8 5 -4 6 4 9 12 6 17 -4 5 -1 9 4 9 6 0 11 -7 11 -15 0 -8 5 -15
11 -15 5 0 8 4 4 9 -3 5 0 13 6 17 8 4 9 3 5 -4 -7 -12 53 -10 72 2 6 3 13 2
17 -4 3 -5 -3 -10 -14 -10 -12 0 -21 -4 -21 -8 0 -16 30 -9 47 11 10 11 12 17
6 13 -7 -4 -13 -3 -13 2 0 6 -7 13 -16 16 -8 3 -12 2 -9 -4 11 -17 -7 -11 -21
8 -13 16 -14 16 -7 -3 6 -18 5 -19 -12 -5 -10 8 -16 10 -12 4 4 -7 -2 -11 -18
-11 -14 0 -22 4 -19 8 9 15 -20 5 -32 -10 -9 -11 -14 -10 -27 10 -10 13 -17
18 -17 11 0 -10 -5 -10 -22 -1 -21 11 -21 12 -3 25 10 8 14 14 9 14 -6 0 -15
-5 -20 -10 -8 -8 -15 -6 -25 6 -13 16 -12 17 6 10 11 -4 16 -3 11 1 -4 4 -19
8 -32 8 l-25 1 22 -17 c16 -12 19 -18 9 -24 -9 -5 -11 -4 -6 3 7 12 -4 16 -34
13 -12 -2 -12 0 -2 7 8 5 13 12 13 16 -3 20 1 25 14 20 8 -4 15 -1 15 6 0 6
-5 8 -12 4 -7 -5 -9 -2 -6 8 4 8 -4 28 -18 44 -13 16 -23 24 -24 18 0 -6 6
-17 14 -23 16 -14 16 -56 -1 -57 -26 -3 -28 -4 -15 -13 11 -6 10 -10 -1 -19
-20 -17 -16 18 6 52 l17 26 -30 -4 c-16 -2 -27 1 -24 6 3 5 12 7 20 4 8 -3 14
-1 14 3 0 5 -4 11 -9 13 -5 2 -3 11 4 21 11 15 17 17 32 8 11 -6 13 -11 5 -11
-7 0 -11 -4 -8 -9 3 -5 16 -7 28 -3 21 5 21 6 -8 29 -26 22 -26 23 -4 12 14
-7 29 -12 33 -11 5 1 6 -2 2 -8 -3 -5 -2 -10 4 -10 5 0 12 6 14 13 4 9 6 9 6
0 1 -16 -40 -44 -53 -36 -6 3 -5 0 1 -7 10 -11 16 -11 31 3 22 20 33 22 28 5
-1 -7 -1 -10 2 -5 2 4 13 12 24 18 18 10 20 9 15 -5 -3 -8 -2 -18 4 -21 5 -4
9 -3 8 2 -4 23 2 35 16 29 12 -4 13 -2 6 13 -11 19 -5 31 13 31 6 0 4 -5 -4
-10 -12 -8 -11 -10 8 -10 25 0 28 10 10 29 -7 7 -8 11 -3 9 16 -5 62 42 48 50
-6 4 -10 21 -10 39 1 24 5 29 14 21 10 -8 10 -14 2 -25 -7 -7 -10 -16 -7 -18
3 -3 11 1 17 9 18 21 -4 60 -30 53 -10 -3 -17 -1 -13 4 3 5 12 9 20 9 8 0 13
4 9 10 -3 5 -13 7 -23 4 -14 -5 -14 -4 -2 4 8 6 18 8 23 5 5 -3 7 0 5 8 -3 8
-14 13 -24 11 -18 -3 -18 -3 1 11 18 14 21 14 31 -5 11 -20 12 -20 12 5 0 14
-6 25 -12 24 -6 -1 -11 5 -11 13 0 8 6 14 13 12 8 -1 11 2 7 8 -5 8 -11 8 -19
1 -16 -14 -26 -4 -19 17 4 14 3 14 -5 3 -6 -8 -15 -10 -23 -5 -8 5 -18 9 -24
10 -5 1 -14 3 -20 4 -25 6 -36 -1 -31 -18 4 -12 1 -19 -8 -19 -14 0 -12 21 5
43 5 6 3 11 -6 11 -8 0 -12 -4 -9 -9 3 -4 0 -8 -5 -8 -6 0 -10 -6 -8 -12 1 -7
-6 -12 -15 -10 -9 1 -19 -2 -23 -8 -3 -5 -11 -10 -18 -10 -6 0 -1 7 11 16 12
8 27 12 34 8 7 -4 8 -3 4 5 -4 6 -15 10 -24 9 -9 -2 -17 2 -17 9 0 6 -3 14 -7
18 -3 4 -6 1 -4 -7z m137 -33 c9 2 28 -8 43 -22 26 -24 27 -43 3 -43 -8 0 -8
3 1 9 11 6 9 9 -6 13 -11 3 -25 1 -32 -6 -8 -8 -10 -7 -5 7 4 9 11 17 17 17 5
0 6 5 3 10 -5 8 -12 7 -22 -1 -12 -10 -16 -10 -24 2 -10 17 -12 39 -1 23 4 -6
14 -10 23 -9z m1087 7 c14 12 14 11 1 -9 -8 -13 -16 -23 -19 -23 -3 0 -6 10
-7 23 0 12 1 16 4 9 4 -10 8 -10 21 0z m-78 -61 c3 -2 -2 -2 -10 1 -20 7 -37
-12 -35 -39 1 -13 -3 -19 -11 -16 -13 5 -13 21 1 43 5 8 10 18 11 23 1 4 2 10
3 13 1 5 20 -6 41 -25z m-1166 -7 c5 -14 4 -15 -9 -4 -17 14 -19 20 -6 20 5 0
12 -7 15 -16z m1394 -48 c10 -6 10 -11 2 -21 -9 -10 -7 -16 7 -23 10 -5 24 -7
32 -4 8 3 11 0 7 -6 -7 -11 -57 -9 -76 3 -6 4 -9 13 -6 21 3 7 -1 20 -9 28
-13 13 -12 14 8 12 13 -1 28 -6 35 -10z m-1443 -38 c12 6 25 1 25 -9 0 -8 -5
-8 -15 1 -19 16 -19 6 1 -28 15 -25 15 -26 -1 -7 -9 11 -20 19 -25 18 -13 -4
-32 35 -24 49 5 7 12 5 21 -8 8 -10 16 -18 18 -16z m1405 -28 c0 -5 -5 -10
-11 -10 -5 0 -7 5 -4 10 3 6 8 10 11 10 2 0 4 -4 4 -10z m130 -28 c14 -16 20
-18 30 -9 10 9 11 9 6 0 -4 -7 -2 -13 3 -13 6 0 11 5 11 12 0 6 11 1 24 -11
20 -19 23 -27 13 -42 -6 -10 -13 -16 -16 -14 -2 3 2 11 9 19 10 13 7 15 -19
11 -17 -2 -29 0 -26 5 3 5 1 11 -5 15 -5 3 -10 1 -10 -4 0 -6 -5 -11 -11 -11
-5 0 -8 4 -5 9 3 5 -2 12 -11 15 -11 5 -23 -1 -34 -16 l-18 -23 -25 28 c-30
32 -32 39 -11 30 9 -3 15 -2 14 3 -3 18 2 21 33 19 18 -1 39 -11 48 -23z
m-100 -32 c8 -5 12 -11 10 -14 -3 -2 -14 2 -24 10 -22 15 -10 19 14 4z m90 3
c0 -5 -5 -15 -10 -23 -7 -12 -9 -10 -7 8 1 19 17 33 17 15z m-110 -16 c0 -2
-10 -12 -22 -23 l-23 -19 19 23 c18 21 26 27 26 19z m-1405 -56 c-8 -17 -20
-31 -26 -31 -6 0 -3 7 5 16 9 8 19 27 23 42 3 15 8 22 10 15 2 -6 -3 -25 -12
-42z m1543 36 c14 4 14 3 2 -5 -16 -12 -30 -7 -29 11 0 9 2 9 5 0 3 -7 13 -9
22 -6z m-1598 -17 c-6 -11 -13 -20 -16 -20 -2 0 0 9 6 20 6 11 13 20 16 20 2
0 0 -9 -6 -20z m1463 5 c-3 -10 -1 -15 7 -13 7 2 15 -4 17 -12 4 -13 3 -13 -6
0 -6 8 -11 11 -11 6 0 -6 -5 -5 -11 1 -6 6 -8 16 -5 22 10 16 16 13 9 -4z m47
5 c0 -5 -4 -10 -10 -10 -5 0 -10 5 -10 10 0 6 5 10 10 10 6 0 10 -4 10 -10z
m34 -6 c5 -14 4 -15 -9 -4 -17 14 -19 20 -6 20 5 0 12 -7 15 -16z m-1714 -14
c0 -5 -5 -10 -11 -10 -5 0 -7 5 -4 10 3 6 8 10 11 10 2 0 4 -4 4 -10z m1630
-25 c0 -2 -8 -3 -18 -2 -10 0 -19 7 -19 13 0 9 5 10 19 3 10 -5 18 -12 18 -14z
m73 12 c7 3 8 2 4 -2 -14 -16 -36 -14 -29 3 4 10 7 12 10 4 2 -7 9 -9 15 -5z
m-1303 -10 c0 -6 -3 -7 -6 -4 -4 3 -14 2 -24 -3 -11 -6 -17 -5 -17 3 0 7 11
13 24 13 13 1 23 -3 23 -9z m1253 -14 c-7 -2 -13 -9 -13 -14 0 -6 4 -8 8 -5 4
2 9 -5 9 -16 2 -21 2 -21 -13 1 -16 22 -11 42 9 40 9 0 9 -2 0 -6z m-1479 -21
c3 -5 -1 -9 -9 -9 -8 0 -12 4 -9 9 3 4 7 8 9 8 2 0 6 -4 9 -8z m1875 -36 c10
-12 9 -14 -5 -12 -10 2 -20 8 -22 14 -5 17 13 15 27 -2z m-1855 -12 c3 -8 2
-12 -4 -9 -6 3 -10 10 -10 16 0 14 7 11 14 -7z m36 12 c0 -3 -4 -8 -10 -11 -5
-3 -10 -1 -10 4 0 6 5 11 10 11 6 0 10 -2 10 -4z m-413 -31 c-17 -12 -24 -31
-9 -21 5 3 9 -1 9 -9 0 -11 -4 -12 -13 -4 -8 6 -14 6 -18 0 -3 -5 0 -11 6 -14
7 -2 10 -7 7 -11 -3 -3 -14 3 -25 15 -10 11 -14 19 -9 17 13 -4 55 38 47 48
-4 4 -1 4 7 -1 12 -7 11 -10 -2 -20z m2323 -95 c0 -5 11 -7 25 -4 14 2 25 1
26 -3 0 -5 2 -16 4 -26 3 -15 1 -16 -11 -6 -17 14 -18 5 -3 -23 7 -12 7 -18 1
-14 -6 3 -13 0 -16 -6 -3 -7 -3 -2 1 12 5 21 4 23 -8 13 -10 -8 -20 -9 -29 -3
-10 7 -11 10 -2 10 6 0 12 5 12 11 0 5 -4 8 -9 5 -5 -4 -8 2 -6 11 1 10 -2 24
-8 31 -7 9 -6 11 7 6 9 -3 16 -10 16 -14z m-762 -8 c5 -17 -13 -15 -27 2 -10
12 -9 14 5 12 10 -2 20 -8 22 -14z m407 8 c-3 -5 -12 -10 -18 -10 -7 0 -6 4 3
10 19 12 23 12 15 0z m-1730 -20 c-3 -5 -12 -10 -18 -10 -7 0 -6 4 3 10 19 12
23 12 15 0z m1501 -2 c3 -4 -6 -5 -20 -4 -14 2 -26 -1 -26 -7 0 -6 -3 -8 -6
-4 -3 3 -3 10 0 15 6 10 42 9 52 0z m-1851 -8 c-4 -6 -1 -17 5 -25 17 -20 3
-19 -17 1 -14 13 -14 17 -2 25 18 11 22 11 14 -1z m2402 4 c-3 -3 -12 -4 -19
-1 -8 3 -5 6 6 6 11 1 17 -2 13 -5z m-1767 -8 c0 -2 -7 -7 -16 -10 -8 -3 -12
-2 -9 4 6 10 25 14 25 6z m1040 -6 c0 -6 -6 -13 -14 -16 -8 -3 -12 -15 -10
-27 4 -21 4 -21 -5 -2 -6 14 -5 23 5 31 7 6 11 14 7 17 -3 4 -1 7 5 7 7 0 12
-5 12 -10z m397 4 c-3 -4 -2 -16 4 -26 12 -22 2 -38 -24 -42 -9 -1 -31 -16
-50 -33 -28 -25 -36 -28 -50 -18 -25 18 -21 24 14 20 28 -4 30 -3 17 13 -11
15 -11 15 2 5 12 -9 20 -7 39 13 20 20 20 23 5 19 -11 -4 -7 1 8 9 17 10 25
22 22 31 -4 8 -1 15 7 15 7 0 9 -3 6 -6z m-1749 -29 c-6 -14 -15 -25 -20 -25
-5 0 -7 -4 -3 -9 3 -5 1 -12 -4 -16 -6 -3 -15 3 -20 14 -8 15 -7 18 7 17 9 0
17 5 17 12 0 10 21 31 32 32 2 0 -3 -11 -9 -25z m365 12 c7 3 10 4 7 0 -3 -3
-8 -5 -12 -4 -4 1 -13 -6 -20 -16 -13 -18 -14 -17 -14 2 0 11 4 17 8 15 4 -3
8 1 9 8 0 10 2 10 6 0 2 -6 10 -9 16 -5z m60 -2 c-3 -9 -8 -14 -10 -11 -3 3
-2 9 2 15 9 16 15 13 8 -4z m20 -10 c-3 -9 -8 -14 -10 -11 -3 3 -2 9 2 15 9
16 15 13 8 -4z m937 11 c0 -2 -7 -7 -16 -10 -8 -3 -12 -2 -9 4 6 10 25 14 25
6z m25 -17 c-4 -5 -14 -8 -23 -8 -15 1 -15 2 1 6 9 2 14 9 11 15 -4 7 -2 8 5
4 6 -4 9 -12 6 -17z m65 11 c0 -5 -4 -10 -10 -10 -5 0 -10 5 -10 10 0 6 5 10
10 10 6 0 10 -4 10 -10z m380 0 c0 -5 -2 -10 -4 -10 -3 0 -8 5 -11 10 -3 6 -1
10 4 10 6 0 11 -4 11 -10z m225 0 c-3 -5 -12 -10 -18 -10 -7 0 -6 4 3 10 19
12 23 12 15 0z m-2360 -20 c-3 -5 -12 -10 -18 -10 -7 0 -6 4 3 10 19 12 23 12
15 0z m590 -20 c2 -12 1 -20 -2 -16 -4 4 -8 16 -10 28 -4 28 6 18 12 -12z m95
20 c0 -4 -12 -7 -26 -7 -14 0 -21 3 -15 7 7 3 18 7 26 7 8 0 15 -4 15 -7z
m1023 -5 c-3 -9 -8 -14 -10 -11 -3 3 -2 9 2 15 9 16 15 13 8 -4z m72 5 c-3 -5
-12 -10 -18 -10 -7 0 -6 4 3 10 19 12 23 12 15 0z m325 0 c-19 -13 -30 -13
-30 0 0 6 10 10 23 10 18 0 19 -2 7 -10z m-2175 -9 c3 -5 2 -12 -3 -15 -5 -3
-9 1 -9 9 0 17 3 19 12 6z m1035 -58 c0 -4 -8 1 -18 10 -10 10 -21 15 -23 13
-2 -2 -13 8 -24 22 -18 25 -16 24 23 -6 23 -19 42 -36 42 -39z m765 57 c-3 -6
4 -10 17 -11 13 0 17 -3 10 -6 -18 -7 -44 5 -37 17 3 5 8 10 11 10 3 0 2 -4
-1 -10z m396 -4 c-8 -10 -9 -16 -1 -21 5 -3 10 -1 10 5 0 6 5 8 11 4 8 -4 7
-9 -2 -15 -8 -5 -21 -2 -32 9 -18 16 -18 17 0 23 26 11 27 10 14 -5z m-1716
-17 c-5 -16 -4 -19 5 -14 8 5 11 4 6 -3 -3 -6 -2 -13 4 -17 5 -3 10 -2 10 3 0
5 6 9 14 9 8 0 11 -8 8 -19 -2 -10 1 -18 7 -18 7 0 10 -4 6 -10 -15 -24 -80
46 -69 74 9 24 16 19 9 -5z m305 11 c0 -5 -4 -10 -10 -10 -5 0 -10 5 -10 10 0
6 5 10 10 10 6 0 10 -4 10 -10z m-30 -20 c0 -5 -2 -10 -4 -10 -3 0 -8 5 -11
10 -3 6 -1 10 4 10 6 0 11 -4 11 -10z m990 0 c0 -5 -7 -10 -16 -10 -9 0 -12
-5 -8 -12 5 -7 3 -8 -6 -3 -10 6 -9 11 5 22 22 16 25 16 25 3z m30 -15 c-7 -8
-17 -15 -23 -15 -6 0 -2 8 9 19 22 21 33 19 14 -4z m144 6 c4 -5 -3 -7 -14 -4
-23 6 -26 13 -6 13 8 0 17 -4 20 -9z m-1109 -19 c-3 -3 -11 0 -18 7 -9 10 -8
11 6 5 10 -3 15 -9 12 -12z m55 8 c0 -5 -4 -10 -10 -10 -5 0 -10 5 -10 10 0 6
5 10 10 10 6 0 10 -4 10 -10z m832 -14 c7 4 8 2 4 -5 -9 -13 -26 -5 -25 12 0
9 2 8 6 -1 2 -6 10 -9 15 -6z m588 10 c0 -2 -8 -10 -17 -17 -16 -13 -17 -12
-4 4 13 16 21 21 21 13z m-1450 -16 c0 -5 -8 -10 -17 -10 -15 0 -16 2 -3 10
19 12 20 12 20 0z m76 -17 c-6 -6 -36 9 -36 18 0 5 9 4 20 -3 10 -7 18 -14 16
-15z m-49 0 c-4 -3 0 -14 9 -24 12 -14 13 -18 2 -25 -7 -4 -10 -4 -6 1 4 4 1
14 -7 22 -18 17 -19 33 -3 33 6 0 8 -3 5 -7z m853 -5 c0 -5 -9 -8 -19 -8 -11
0 -22 3 -24 8 -3 4 6 7 19 7 13 0 24 -3 24 -7z m-1435 -22 c-1 -12 2 -26 7
-33 5 -7 6 -18 2 -25 -9 -13 -10 -18 -13 -39 0 -5 -6 -7 -13 -3 -8 5 -9 2 -5
-9 3 -10 2 -17 -3 -17 -17 0 -11 28 8 39 16 10 15 11 -5 17 -12 3 -24 13 -28
22 -5 14 -4 15 6 5 20 -20 31 -15 19 7 -6 11 -15 18 -20 15 -6 -3 -7 1 -3 10
4 12 8 13 13 5 6 -9 9 -9 15 0 4 7 2 16 -6 21 -10 6 -8 8 7 7 14 -2 20 -8 19
-22z m737 10 c7 4 8 2 4 -4 -11 -18 -26 -14 -25 6 0 10 3 12 6 4 2 -6 10 -9
15 -6z m840 0 c3 2 8 -2 12 -11 4 -13 2 -14 -14 -5 -10 5 -22 16 -26 23 -6 9
-5 9 8 0 8 -7 17 -10 20 -7z m-932 0 c0 -2 -7 -7 -16 -10 -8 -3 -12 -2 -9 4 6
10 25 14 25 6z m700 -16 c-6 -11 -13 -20 -16 -20 -2 0 0 9 6 20 6 11 13 20 16
20 2 0 0 -9 -6 -20z m50 10 c8 -5 11 -10 5 -10 -5 0 -17 5 -25 10 -8 5 -10 10
-5 10 6 0 17 -5 25 -10z m126 -12 c-2 -28 -43 -51 -43 -24 0 8 6 12 15 9 11
-5 13 -1 8 14 -4 13 -2 20 7 20 8 0 14 -9 13 -19z m504 16 c0 -8 -19 -13 -24
-6 -3 5 1 9 9 9 8 0 15 -2 15 -3z m-1454 -26 c5 -7 3 -8 -6 -3 -10 6 -12 4 -7
-8 3 -10 2 -17 -3 -17 -11 0 -13 23 -3 33 9 9 11 9 19 -5z m51 -13 c0 -8 -4
-12 -9 -9 -5 3 -6 10 -3 15 9 13 12 11 12 -6z m60 0 c0 -8 -5 -11 -10 -8 -6 4
-8 0 -5 -9 4 -9 0 -15 -8 -15 -8 0 -12 3 -9 5 3 3 0 11 -7 19 -8 11 -7 12 5 8
8 -4 18 -2 22 4 9 15 12 14 12 -4z m73 -6 c0 -5 -4 -7 -10 -4 -5 3 -10 1 -10
-6 0 -7 -3 -10 -6 -6 -8 7 4 27 17 27 5 0 9 -5 9 -11z m550 1 c0 -5 -4 -10
-10 -10 -5 0 -10 5 -10 10 0 6 5 10 10 10 6 0 10 -4 10 -10z m-51 -32 c-5 -10
-15 -18 -22 -17 -9 0 -9 2 1 6 6 2 12 9 12 14 0 6 -5 7 -12 3 -6 -4 -8 -3 -5
3 3 5 13 10 21 10 11 0 13 -5 5 -19z m107 10 c4 -7 3 -8 -4 -4 -11 6 -16 -5
-13 -26 0 -4 -6 -5 -13 -2 -12 5 -12 9 2 25 19 22 19 22 28 7z m-1402 -27 c-2
-3 -12 3 -22 13 -16 17 -16 18 5 5 12 -7 20 -15 17 -18z m668 20 c-8 -4 -13
-12 -12 -17 1 -5 -4 -10 -12 -12 -9 -2 -8 0 2 7 8 6 11 11 7 11 -5 0 -5 5 -2
10 3 6 12 10 18 10 8 0 8 -3 -1 -9z m72 -21 c-6 -6 -10 -3 -10 10 0 13 4 16
10 10 7 -7 7 -13 0 -20z m1242 -5 c-1 -8 -5 -17 -8 -21 -5 -4 -4 16 1 34 3 9
9 -1 7 -13z m-1276 -5 c-14 -9 -6 -15 15 -10 6 1 6 -2 2 -7 -5 -4 -12 -7 -15
-6 -4 0 -16 -3 -27 -9 -20 -9 -20 -9 -1 6 18 15 15 21 -7 17 -5 -1 -6 2 -4 7
3 4 16 8 29 9 18 2 19 0 8 -7z m555 -12 c-9 -6 -19 -7 -22 -4 -4 3 -1 6 6 6 7
0 9 4 6 10 -4 6 1 7 11 3 15 -6 15 -7 -1 -15z m82 15 c-4 -3 -1 -13 6 -22 11
-14 10 -14 -5 -2 -21 15 -23 31 -6 31 6 0 8 -3 5 -7z m-129 -47 c-10 -7 -15
-16 -11 -19 3 -4 1 -7 -5 -7 -7 0 -12 3 -12 7 0 10 34 41 40 36 3 -3 -3 -10
-12 -17z m87 14 c-3 -5 -12 -10 -18 -10 -7 0 -6 4 3 10 19 12 23 12 15 0z m82
-30 c-1 -13 -5 -16 -13 -10 -6 6 -13 8 -16 5 -2 -3 -5 2 -5 10 0 12 3 12 16 2
12 -10 14 -9 8 6 -4 10 -3 16 2 12 6 -3 9 -14 8 -25z m-1343 5 c3 -8 1 -15 -4
-15 -6 0 -10 7 -10 15 0 8 2 15 4 15 2 0 6 -7 10 -15z m57 -9 c-6 -7 -9 -15
-6 -17 2 -3 -6 -5 -19 -5 -16 0 -22 4 -19 14 5 11 7 11 14 0 5 -7 9 -10 10 -5
1 4 3 12 4 17 1 6 3 13 4 16 0 3 6 2 11 -1 8 -5 8 -11 1 -19z m567 -1 c-3 -3
-9 2 -12 12 -6 14 -5 15 5 6 7 -7 10 -15 7 -18z m659 10 c0 -8 -4 -12 -9 -9
-5 3 -6 10 -3 15 9 13 12 11 12 -6z m-682 -5 c4 -6 -1 -7 -11 -3 -13 5 -15 3
-9 -7 5 -9 4 -11 -4 -6 -6 4 -9 12 -6 17 8 12 22 12 30 -1z m96 -13 c-10 -9
-11 -8 -5 6 3 10 9 15 12 12 3 -3 0 -11 -7 -18z m523 7 c3 -8 2 -12 -4 -9 -6
3 -10 10 -10 16 0 14 7 11 14 -7z m211 6 c3 -5 1 -10 -4 -10 -6 0 -11 5 -11
10 0 6 2 10 4 10 3 0 8 -4 11 -10z m540 0 c3 -6 -1 -7 -9 -4 -18 7 -21 14 -7
14 6 0 13 -4 16 -10z m-1015 -23 c0 16 27 11 38 -8 8 -12 8 -20 2 -24 -6 -4
-9 -1 -8 7 2 7 -6 14 -17 14 -11 1 -25 2 -31 3 -7 1 -15 9 -18 18 -6 15 -4 15
14 -2 11 -10 20 -14 20 -8z m185 -7 c-3 -5 -12 -10 -18 -10 -7 0 -6 4 3 10 19
12 23 12 15 0z m275 6 c0 -2 -6 -9 -14 -15 -11 -9 -16 -9 -22 0 -4 7 -3 9 4 5
6 -3 13 -2 17 4 6 10 15 14 15 6z m-540 -17 c0 -4 -10 -6 -21 -4 -32 6 -34 13
-4 13 14 0 25 -4 25 -9z m-569 -42 c-7 -7 -16 -5 -29 6 -10 9 -22 14 -25 10
-4 -3 -7 -1 -7 5 0 18 24 20 48 4 16 -10 20 -18 13 -25z m1123 35 c3 -5 -1 -9
-9 -9 -8 0 -12 4 -9 9 3 4 7 8 9 8 2 0 6 -4 9 -8z m13 -39 c0 -17 -5 -16 -23
1 -12 13 -12 15 4 13 10 0 19 -7 19 -14z m253 13 c0 -3 -4 -8 -10 -11 -5 -3
-10 -1 -10 4 0 6 5 11 10 11 6 0 10 -2 10 -4z m-33 -32 c-3 -3 -12 -4 -19 -1
-8 3 -5 6 6 6 11 1 17 -2 13 -5z m573 -133 c0 -4 -6 -8 -13 -8 -8 0 -14 6 -14
13 0 7 6 10 14 7 7 -3 13 -8 13 -12z m-2292 -16 c-3 -3 -9 2 -12 12 -6 14 -5
15 5 6 7 -7 10 -15 7 -18z m1043 2 c-10 -9 -11 -8 -5 6 3 10 9 15 12 12 3 -3
0 -11 -7 -18z m109 8 c7 -9 8 -15 2 -15 -5 0 -12 7 -16 15 -3 8 -4 15 -2 15 2
0 9 -7 16 -15z m-1099 -10 c9 2 16 -3 16 -10 0 -11 -16 -13 -37 -5 -3 1 -8 2
-12 1 -4 0 -5 6 -1 15 3 9 9 11 12 6 3 -5 13 -8 22 -7z m87 -10 c-3 -3 -9 2
-12 12 -6 14 -5 15 5 6 7 -7 10 -15 7 -18z m657 15 c3 -5 1 -10 -4 -10 -6 0
-11 5 -11 10 0 6 2 10 4 10 3 0 8 -4 11 -10z m1140 -9 c-3 -5 -1 -12 5 -16 6
-4 8 -10 5 -14 -5 -10 -53 -2 -60 9 -2 4 7 5 21 2 14 -2 24 -1 23 4 -2 14 0
24 7 24 3 0 3 -4 -1 -9z m-1815 -21 c0 -5 -5 -10 -11 -10 -5 0 -7 5 -4 10 3 6
8 10 11 10 2 0 4 -4 4 -10z m65 -70 c-3 -5 0 -10 7 -10 7 -1 4 -6 -7 -13 -11
-7 -20 -19 -20 -27 0 -8 -8 -16 -17 -18 -25 -5 -16 28 13 44 13 7 20 13 16 14
-9 0 1 20 9 20 3 0 2 -4 -1 -10z m216 -17 c13 -16 12 -17 -3 -4 -10 7 -18 15
-18 17 0 8 8 3 21 -13z m1513 -19 c3 -8 1 -16 -5 -19 -5 -4 -12 1 -15 9 -3 9
-11 13 -17 9 -5 -3 -7 -2 -4 4 9 14 35 12 41 -3z m-1721 -31 c-7 -2 -13 -11
-13 -18 0 -7 6 -16 13 -19 6 -3 2 -3 -11 0 -21 5 -22 4 -10 -15 7 -11 19 -22
28 -25 8 -2 3 -3 -11 -3 -15 1 -25 6 -23 12 3 6 -5 20 -16 30 l-21 19 28 12
c15 7 33 12 38 12 6 0 4 -2 -2 -5z m1699 -88 c2 3 4 -5 3 -18 -1 -12 -5 -21
-8 -19 -4 1 -13 2 -19 2 -9 0 -8 4 2 11 11 8 12 12 3 16 -7 2 -13 9 -13 15 0
7 5 7 13 -1 8 -6 16 -9 19 -6z m-1700 -32 c-10 -4 -9 -8 3 -17 15 -10 14 -12
-3 -12 -17 0 -20 9 -13 34 1 1 7 2 14 1 9 0 9 -2 -1 -6z m1675 -28 c0 -8 -4
-12 -9 -9 -4 3 -8 9 -8 15 0 5 4 9 8 9 5 0 9 -7 9 -15z m-190 -33 c-9 -2 -15
-7 -12 -12 3 -5 2 -11 -3 -14 -4 -2 -8 6 -8 18 0 18 4 22 21 17 17 -4 18 -6 2
-9z m-1283 -44 c-3 -5 -12 -2 -20 6 -20 21 -17 28 5 14 11 -7 17 -16 15 -20z
m1419 7 c-3 -9 -8 -14 -10 -11 -3 3 -2 9 2 15 9 16 15 13 8 -4z m-1449 -20
c-4 -8 -11 -12 -16 -9 -6 4 -5 10 3 15 19 12 19 11 13 -6z m-29 -37 c-7 -18
-32 -19 -39 -2 -3 7 2 10 15 7 11 -3 19 0 19 8 0 7 2 10 5 7 3 -3 3 -12 0 -20z"/>
<path d="M1989 1968 c-8 -35 -6 -47 9 -53 13 -5 14 -4 5 6 -9 9 -9 16 -2 25 7
8 7 14 -1 19 -5 3 -10 5 -11 3z"/>
<path d="M536 1927 c3 -10 9 -15 12 -12 3 3 0 11 -7 18 -10 9 -11 8 -5 -6z"/>
<path d="M2025 1865 c4 -34 5 -35 17 -35 6 0 8 3 5 7 -11 10 31 35 46 27 9 -5
9 -4 1 5 -7 7 -25 14 -41 15 -25 2 -30 -2 -28 -19z"/>
<path d="M2150 1840 c0 -5 5 -10 10 -10 6 0 10 5 10 10 0 6 -4 10 -10 10 -5 0
-10 -4 -10 -10z"/>
<path d="M2491 1534 c6 -7 8 -19 4 -26 -4 -7 1 -4 10 7 9 11 22 19 28 17 7 -2
8 0 4 4 -4 5 -19 9 -32 10 -19 1 -22 -2 -14 -12z"/>
<path d="M2106 1474 c-5 -14 -4 -15 9 -4 17 14 19 20 6 20 -5 0 -12 -7 -15
-16z"/>
<path d="M287 1344 c-8 -8 3 -34 15 -34 7 0 6 5 -1 13 -6 8 -8 17 -4 20 3 4 4
7 1 7 -2 0 -7 -3 -11 -6z"/>
<path d="M582 1134 c10 -10 20 -16 22 -13 3 3 -5 11 -17 18 -21 13 -21 12 -5
-5z"/>
<path d="M1902 2090 c-9 -16 -8 -20 6 -25 10 -3 28 -19 41 -35 12 -17 26 -28
32 -24 5 3 15 1 22 -5 9 -7 13 -5 13 9 0 10 -3 17 -7 14 -12 -7 -39 7 -33 17
3 5 -2 12 -10 15 -9 3 -16 10 -16 16 0 5 5 6 12 2 7 -5 8 -3 3 6 -6 10 -10 10
-19 -2 -12 -16 -36 -13 -36 3 0 6 5 7 10 4 6 -3 10 -2 10 4 0 19 -16 20 -28 1z
m64 -48 c-3 -3 0 -12 7 -20 9 -13 9 -14 0 -8 -7 4 -18 16 -23 26 -9 16 -8 18
5 14 9 -4 13 -9 11 -12z"/>
<path d="M565 2060 c-16 -7 -17 -9 -3 -9 9 -1 20 4 23 9 7 11 7 11 -20 0z"/>
<path d="M530 2020 c-9 -6 -10 -10 -3 -10 6 0 15 5 18 10 8 12 4 12 -15 0z"/>
<path d="M1630 2000 c0 -5 5 -10 11 -10 5 0 7 5 4 10 -3 6 -8 10 -11 10 -2 0
-4 -4 -4 -10z"/>
<path d="M2031 1994 c0 -11 3 -14 6 -6 3 7 2 16 -1 19 -3 4 -6 -2 -5 -13z"/>
<path d="M476 1981 c-3 -5 2 -15 12 -22 15 -12 16 -12 5 2 -7 9 -10 19 -6 22
3 4 4 7 0 7 -3 0 -8 -4 -11 -9z"/>
<path d="M853 1954 c0 -7 6 -15 13 -18 8 -3 11 0 7 10 -6 16 13 20 20 4 3 -6
4 -5 3 2 -4 17 -43 19 -43 2z"/>
<path d="M1686 1935 c-3 -10 -11 -13 -18 -9 -10 6 -10 4 0 -8 8 -9 20 -14 28
-11 16 6 17 12 5 31 -7 11 -9 10 -15 -3z"/>
<path d="M2090 1946 c0 -2 7 -7 16 -10 8 -3 12 -2 9 4 -6 10 -25 14 -25 6z"/>
<path d="M437 1927 c-3 -8 1 -14 8 -14 7 0 11 6 8 14 -3 7 -6 13 -8 13 -2 0
-5 -6 -8 -13z"/>
<path d="M884 1919 c-3 -6 -2 -15 3 -20 5 -5 9 -1 9 11 0 23 -2 24 -12 9z"/>
<path d="M1650 1900 c0 -5 5 -10 11 -10 5 0 7 5 4 10 -3 6 -8 10 -11 10 -2 0
-4 -4 -4 -10z"/>
<path d="M2137 1899 c7 -7 15 -10 18 -7 3 3 -2 9 -12 12 -14 6 -15 5 -6 -5z"/>
<path d="M355 1881 c-6 -11 13 -26 22 -17 4 3 1 6 -6 6 -7 0 -9 5 -6 10 3 6 4
10 1 10 -3 0 -7 -4 -11 -9z"/>
<path d="M394 1876 c11 -9 14 -16 8 -16 -7 0 -12 -8 -12 -17 1 -17 1 -17 11 0
6 9 14 15 18 13 4 -3 8 1 8 9 0 8 -2 13 -5 10 -3 -2 -14 0 -26 6 -20 10 -20
10 -2 -5z"/>
<path d="M1682 1881 c-11 -6 -10 -10 4 -15 16 -6 16 -7 -1 -20 -16 -12 -15
-13 14 -14 32 -1 42 12 16 22 -8 3 -12 12 -9 21 7 17 -4 19 -24 6z"/>
<path d="M862 1873 c-10 -4 -10 -8 -1 -19 14 -17 29 -18 29 -3 0 5 -5 7 -12 3
-8 -5 -9 -2 -5 9 3 10 5 17 4 16 -1 0 -8 -3 -15 -6z"/>
<path d="M2190 1870 c0 -5 5 -10 11 -10 5 0 7 5 4 10 -3 6 -8 10 -11 10 -2 0
-4 -4 -4 -10z"/>
<path d="M831 1816 c-20 -21 -20 -22 -1 -23 14 -1 17 3 13 15 -6 15 -5 16 12
2 10 -8 16 -10 12 -3 -4 7 0 13 10 15 15 3 14 5 -4 10 -15 4 -28 -1 -42 -16z"/>
<path d="M2235 1820 c-3 -5 -1 -10 4 -10 6 0 11 5 11 10 0 6 -2 10 -4 10 -3 0
-8 -4 -11 -10z"/>
<path d="M194 1782 c3 -6 2 -13 -3 -17 -6 -3 -7 -13 -4 -22 5 -12 3 -14 -7 -8
-9 5 -11 4 -6 -4 9 -15 29 -3 22 14 -2 7 0 17 6 23 6 6 6 12 -3 17 -7 5 -10 4
-5 -3z"/>
<path d="M1730 1761 c0 -6 4 -13 10 -16 6 -3 7 1 4 9 -7 18 -14 21 -14 7z"/>
<path d="M796 1747 c3 -10 9 -15 12 -12 3 3 0 11 -7 18 -10 9 -11 8 -5 -6z"/>
<path d="M2386 1735 c4 -8 11 -15 16 -15 6 0 5 6 -2 15 -7 8 -14 15 -16 15 -2
0 -1 -7 2 -15z"/>
<path d="M1833 1715 c0 -8 4 -12 9 -9 5 3 6 10 3 15 -9 13 -12 11 -12 -6z"/>
<path d="M1953 1703 c4 -3 2 -12 -4 -20 -8 -9 -15 -10 -24 -3 -10 8 -15 8 -21
-1 -4 -7 -3 -9 4 -5 6 3 13 2 17 -4 3 -5 1 -10 -5 -10 -18 0 -6 -23 13 -26 9
-1 15 2 12 6 -3 5 -1 11 5 15 6 4 8 10 5 15 -3 5 -1 11 5 15 14 8 13 25 -2 25
-6 0 -8 -3 -5 -7z m-3 -37 c0 -2 -8 -10 -17 -17 -16 -13 -17 -12 -4 4 13 16
21 21 21 13z"/>
<path d="M2427 1648 c-7 -20 -7 -28 0 -30 3 -2 8 7 9 20 4 24 -1 30 -9 10z"/>
<path d="M1853 1625 c0 -8 4 -12 9 -9 5 3 6 10 3 15 -9 13 -12 11 -12 -6z"/>
<path d="M61 1596 c-9 -11 -9 -16 0 -22 7 -4 9 -3 5 4 -3 5 0 12 6 15 7 2 10
7 7 11 -3 4 -12 0 -18 -8z"/>
<path d="M747 1593 c3 -7 6 -13 8 -13 2 0 5 6 8 13 3 8 -1 14 -8 14 -7 0 -11
-6 -8 -14z"/>
<path d="M1673 1595 c0 -7 6 -11 14 -8 7 3 13 6 13 8 0 2 -6 5 -13 8 -8 3 -14
-1 -14 -8z"/>
<path d="M1770 1600 c0 -5 5 -10 11 -10 5 0 7 5 4 10 -3 6 -8 10 -11 10 -2 0
-4 -4 -4 -10z"/>
<path d="M1821 1597 c-1 -12 -6 -16 -13 -11 -7 4 -4 -2 6 -14 14 -17 22 -19
32 -11 14 12 9 33 -6 24 -5 -3 -11 3 -13 12 -4 17 -5 17 -6 0z m29 -23 c0 -8
-19 -13 -24 -6 -3 5 1 9 9 9 8 0 15 -2 15 -3z"/>
<path d="M680 1576 c0 -3 9 -10 20 -16 11 -6 20 -8 20 -6 0 3 -9 10 -20 16
-11 6 -20 8 -20 6z"/>
<path d="M1611 1554 c0 -11 3 -14 6 -6 3 7 2 16 -1 19 -3 4 -6 -2 -5 -13z"/>
<path d="M1755 1540 c3 -5 8 -10 11 -10 2 0 4 5 4 10 0 6 -5 10 -11 10 -5 0
-7 -4 -4 -10z"/>
<path d="M1492 1505 c4 -4 2 -15 -4 -23 -16 -19 -20 -49 -8 -57 6 -3 10 -14
10 -23 0 -14 -4 -12 -19 7 -14 18 -20 21 -26 11 -6 -9 -4 -11 5 -5 10 6 12 4
7 -7 -3 -9 0 -21 6 -27 6 -6 7 -11 1 -11 -5 0 -15 5 -21 11 -8 8 -13 8 -18 0
-3 -6 -3 -11 2 -10 20 3 27 -2 13 -11 -10 -6 -11 -10 -2 -10 17 0 15 -16 -3
-18 -8 -1 -22 -3 -30 -4 -8 -1 -12 -5 -9 -10 3 -4 14 -4 24 2 11 6 21 6 24 1
3 -5 -4 -11 -16 -14 -18 -5 -19 -8 -8 -21 10 -13 10 -19 0 -31 -17 -20 -4 -38
19 -25 12 6 17 18 16 34 -2 14 3 30 11 37 8 6 14 8 14 3 0 -5 4 -2 9 6 11 15
5 30 -10 30 -6 0 -8 -4 -4 -9 3 -5 0 -13 -7 -17 -7 -4 -10 -4 -6 1 4 4 3 16
-3 27 -9 17 -8 19 10 13 18 -6 27 4 19 20 -4 6 36 34 42 30 11 -7 53 33 46 44
-9 14 -26 14 -26 0 0 -5 5 -7 12 -3 7 4 8 3 4 -5 -4 -6 -13 -8 -19 -4 -7 4
-20 9 -31 10 -13 2 -17 -1 -12 -13 4 -10 1 -14 -6 -11 -17 5 -17 38 0 59 11
13 11 17 0 24 -7 4 -10 4 -6 -1z m51 -78 c-2 -4 -5 -6 -6 -4 -2 1 -12 -5 -23
-13 -17 -14 -18 -13 -7 1 7 9 10 18 7 22 -3 3 2 4 13 3 10 -2 17 -6 16 -9z
m-64 -41 c9 -11 9 -16 -1 -22 -7 -4 -10 -4 -6 1 4 4 3 14 -3 22 -6 7 -9 13 -6
13 2 0 10 -6 16 -14z m-28 -89 c-6 -8 -7 -18 -3 -23 4 -4 -1 -2 -11 6 -18 14
-18 14 0 21 26 11 27 10 14 -4z m-5 -49 c4 -7 3 -8 -4 -4 -7 4 -12 2 -12 -5 0
-7 -3 -10 -6 -6 -6 5 3 27 11 27 2 0 7 -5 11 -12z"/>
<path d="M1070 1486 c0 -2 7 -7 16 -10 8 -3 12 -2 9 4 -6 10 -25 14 -25 6z"/>
<path d="M1046 1458 c3 -5 9 -7 12 -3 3 3 11 -3 17 -14 10 -20 11 -20 24 2 13
20 13 21 -1 9 -12 -10 -17 -10 -20 -1 -2 7 -12 13 -21 15 -9 1 -14 -2 -11 -8z"/>
<path d="M1440 1460 c-9 -6 -10 -10 -3 -10 6 0 15 5 18 10 8 12 4 12 -15 0z"/>
<path d="M1518 1463 c7 -3 16 -2 19 1 4 3 -2 6 -13 5 -11 0 -14 -3 -6 -6z"/>
<path d="M960 1450 c-8 -5 -12 -12 -9 -15 4 -3 12 1 19 10 14 17 11 19 -10 5z"/>
<path d="M435 1440 c-3 -6 1 -7 10 -4 11 5 14 2 9 -12 -5 -15 -4 -16 4 -4 11
15 7 30 -8 30 -5 0 -12 -4 -15 -10z"/>
<path d="M1111 1427 c-8 -10 -7 -14 2 -14 8 0 14 6 14 14 0 7 -1 13 -2 13 -2
0 -8 -6 -14 -13z"/>
<path d="M370 1419 c0 -5 5 -7 10 -4 6 3 10 8 10 11 0 2 -4 4 -10 4 -5 0 -10
-5 -10 -11z"/>
<path d="M1415 1420 c-3 -5 -1 -10 4 -10 6 0 11 5 11 10 0 6 -2 10 -4 10 -3 0
-8 -4 -11 -10z"/>
<path d="M1806 1399 c-14 -11 -31 -17 -38 -13 -7 4 -10 4 -6 -1 4 -4 3 -14 -3
-21 -5 -7 -6 -15 -1 -18 5 -3 18 8 30 24 14 18 29 28 40 25 11 -2 19 3 19 11
0 19 -10 18 -41 -7z"/>
<path d="M709 1403 c0 -5 -2 -18 -5 -30 -2 -13 1 -23 7 -23 5 0 8 -4 4 -9 -10
-17 12 -21 25 -6 7 8 17 15 23 15 5 0 2 -10 -9 -22 -10 -12 -13 -18 -5 -13 11
6 13 4 8 -9 -4 -10 -3 -15 3 -11 6 4 9 14 8 22 -2 9 2 18 9 20 12 4 11 -15 -2
-49 -4 -11 -3 -18 5 -18 6 0 8 5 5 10 -3 6 -2 10 3 10 6 0 13 -7 16 -16 8 -22
8 -26 -4 -19 -5 3 -10 1 -10 -5 0 -7 7 -9 16 -6 10 4 14 1 11 -6 -2 -7 -15
-12 -28 -11 -21 2 -22 2 -6 -8 13 -8 22 -7 33 1 9 8 14 9 14 2 0 -6 -5 -14
-10 -17 -8 -5 -7 -12 2 -23 11 -13 10 -15 -4 -9 -10 3 -20 1 -24 -6 -4 -7 -4
-9 1 -5 4 4 13 2 19 -5 6 -7 10 -10 9 -8 -2 2 2 10 8 18 6 7 8 13 4 13 -5 0 0
9 10 20 16 18 16 20 1 26 -15 6 -24 27 -8 21 4 -1 17 8 30 21 12 12 18 22 13
22 -6 0 -13 -5 -16 -10 -6 -10 -62 48 -58 59 1 3 -5 14 -14 23 -8 9 -12 22 -8
28 4 7 -1 9 -18 5 -14 -4 -28 -2 -31 4 -8 13 -26 15 -27 4z m59 -35 c4 2 7 -1
9 -7 1 -8 0 -8 -4 -1 -3 7 -15 3 -31 -12 -14 -13 -22 -18 -18 -11 3 6 2 14 -3
17 -5 4 -8 14 -6 24 2 9 4 19 4 21 1 2 10 -4 22 -15 12 -10 24 -18 27 -16z
m67 -86 c-3 -3 0 -10 5 -17 7 -8 5 -12 -4 -12 -8 0 -20 12 -27 26 -21 44 -19
54 7 30 13 -12 22 -25 19 -27z m15 -66 c0 -2 -8 -10 -17 -17 -16 -13 -17 -12
-4 4 13 16 21 21 21 13z"/>
<path d="M724 1373 c2 -10 6 -17 10 -16 15 3 16 11 2 22 -12 10 -14 9 -12 -6z"/>
<path d="M800 1306 c0 -2 8 -10 18 -17 15 -13 16 -12 3 4 -13 16 -21 21 -21
13z"/>
<path d="M595 1390 c-4 -6 -2 -17 5 -24 8 -11 8 -15 -2 -19 -7 -2 -10 -8 -5
-12 10 -12 18 -1 21 29 3 28 -8 43 -19 26z"/>
<path d="M647 1385 c-18 -13 -24 -31 -7 -20 17 11 11 -7 -7 -21 -10 -7 -14
-14 -10 -14 4 0 19 12 32 26 l24 26 -5 -28 c-3 -16 -2 -26 1 -23 3 4 8 18 10
32 6 29 -13 40 -38 22z"/>
<path d="M335 1380 c-3 -6 1 -7 9 -4 18 7 21 14 7 14 -6 0 -13 -4 -16 -10z"/>
<path d="M490 1380 c0 -5 5 -10 11 -10 5 0 7 5 4 10 -3 6 -8 10 -11 10 -2 0
-4 -4 -4 -10z"/>
<path d="M2045 1360 c3 -5 8 -10 11 -10 2 0 4 5 4 10 0 6 -5 10 -11 10 -5 0
-7 -4 -4 -10z"/>
<path d="M690 1325 c0 -8 4 -15 10 -15 5 0 7 7 4 15 -4 8 -8 15 -10 15 -2 0
-4 -7 -4 -15z"/>
<path d="M1953 1325 c0 -8 4 -12 9 -9 4 3 8 9 8 15 0 5 -4 9 -8 9 -5 0 -9 -7
-9 -15z"/>
<path d="M1981 1318 c-13 -22 -13 -22 4 -8 10 8 21 14 24 13 3 -1 8 1 11 4 3
4 0 3 -7 0 -6 -4 -13 -3 -15 3 -2 6 -9 0 -17 -12z"/>
<path d="M637 1323 c-10 -10 -8 -23 4 -23 5 0 8 4 5 9 -4 5 0 12 6 14 7 3 8 6
2 6 -6 1 -14 -2 -17 -6z"/>
<path d="M2030 1321 c0 -6 4 -13 10 -16 6 -3 7 1 4 9 -7 18 -14 21 -14 7z"/>
<path d="M716 1302 c-3 -5 1 -9 9 -9 8 0 12 4 9 9 -3 4 -7 8 -9 8 -2 0 -6 -4
-9 -8z"/>
<path d="M1150 1300 c-12 -7 -10 -9 7 -7 12 0 19 5 17 9 -6 10 -6 10 -24 -2z"/>
<path d="M1870 1298 c0 -4 4 -8 9 -8 6 0 12 4 15 8 3 5 -1 9 -9 9 -8 0 -15 -4
-15 -9z"/>
<path d="M1095 1290 c-3 -5 3 -15 14 -22 17 -10 18 -13 4 -23 -13 -10 -13 -13
1 -24 16 -14 17 -12 19 27 1 9 5 20 9 23 5 3 -3 11 -16 17 -15 7 -28 8 -31 2z
m30 -18 c-3 -3 -11 0 -18 7 -9 10 -8 11 6 5 10 -3 15 -9 12 -12z"/>
<path d="M350 1279 c0 -5 5 -7 10 -4 6 3 10 8 10 11 0 2 -4 4 -10 4 -5 0 -10
-5 -10 -11z"/>
<path d="M670 1276 c7 -7 13 -7 20 0 6 6 3 10 -10 10 -13 0 -16 -4 -10 -10z"/>
<path d="M1953 1275 c0 -8 4 -12 9 -9 5 3 6 10 3 15 -9 13 -12 11 -12 -6z"/>
<path d="M1986 1278 c3 -5 10 -6 15 -3 13 9 11 12 -6 12 -8 0 -12 -4 -9 -9z"/>
<path d="M2186 1282 c-3 -5 1 -9 9 -9 8 0 15 4 15 9 0 4 -4 8 -9 8 -6 0 -12
-4 -15 -8z"/>
<path d="M1155 1260 c-3 -5 -4 -14 0 -19 3 -5 1 -12 -4 -16 -6 -3 -7 -13 -4
-21 4 -11 9 -12 16 -5 8 8 17 6 31 -7 11 -9 16 -11 12 -4 -4 7 -2 21 5 30 11
14 11 15 -1 5 -22 -20 -35 -15 -17 5 21 23 21 28 0 37 -14 5 -15 4 -6 -6 10
-10 9 -16 -4 -31 -9 -10 -21 -18 -26 -18 -6 0 -2 10 9 22 10 12 13 18 5 13
-11 -6 -13 -4 -8 8 7 19 2 23 -8 7z"/>
<path d="M1775 1260 c3 -5 8 -10 11 -10 2 0 4 5 4 10 0 6 -5 10 -11 10 -5 0
-7 -4 -4 -10z"/>
<path d="M1755 1239 c-4 -6 -4 -13 -1 -16 3 -4 6 -1 6 6 0 7 5 9 12 5 7 -4 8
-3 4 4 -9 15 -13 15 -21 1z"/>
<path d="M2049 1237 c6 -8 7 -18 3 -22 -4 -5 -1 -5 6 -1 10 6 10 11 1 22 -6 8
-14 14 -16 14 -3 0 0 -6 6 -13z"/>
<path d="M1275 1229 c-4 -6 -5 -12 -2 -15 2 -3 7 2 10 11 7 17 1 20 -8 4z"/>
<path d="M2113 1225 c0 -8 4 -12 9 -9 5 3 6 10 3 15 -9 13 -12 11 -12 -6z"/>
<path d="M2150 1229 c-12 -9 -12 -10 4 -5 14 5 17 3 12 -11 -6 -15 -5 -16 5
-5 18 17 -1 35 -21 21z"/>
<path d="M573 1215 c0 -8 4 -12 9 -9 5 3 6 10 3 15 -9 13 -12 11 -12 -6z"/>
<path d="M2000 1220 c-9 -6 -10 -10 -3 -10 6 0 15 5 18 10 8 12 4 12 -15 0z"/>
<path d="M2091 1203 c0 -13 -5 -23 -11 -23 -5 0 -7 8 -4 18 5 14 4 14 -4 3 -7
-10 -15 -12 -24 -5 -8 5 -5 1 5 -8 24 -22 28 -22 53 -2 10 8 14 13 7 10 -6 -4
-14 2 -16 11 -4 14 -5 13 -6 -4z"/>
<path d="M2200 1210 c-8 -5 -11 -13 -6 -17 5 -4 11 -2 13 5 3 6 10 9 15 6 7
-4 8 -2 4 4 -9 14 -7 14 -26 2z"/>
<path d="M510 1196 c0 -16 -2 -16 -16 -5 -13 10 -17 10 -24 -1 -17 -27 6 -35
42 -14 12 6 14 14 8 24 -8 12 -10 12 -10 -4z m-16 -14 c3 -5 -1 -9 -9 -9 -8 0
-12 4 -9 9 3 4 7 8 9 8 2 0 6 -4 9 -8z"/>
<path d="M2000 1190 c8 -5 20 -10 25 -10 6 0 3 5 -5 10 -8 5 -19 10 -25 10 -5
0 -3 -5 5 -10z"/>
<path d="M580 1186 c0 -2 8 -10 18 -17 15 -13 16 -12 3 4 -13 16 -21 21 -21
13z"/>
<path d="M1757 1183 c-4 -3 -7 -11 -7 -17 0 -6 5 -5 12 2 6 6 9 14 7 17 -3 3
-9 2 -12 -2z"/>
<path d="M510 1160 c0 -5 5 -10 10 -10 6 0 10 5 10 10 0 6 -4 10 -10 10 -5 0
-10 -4 -10 -10z"/>
<path d="M633 1155 c0 -8 4 -12 9 -9 5 3 6 10 3 15 -9 13 -12 11 -12 -6z"/>
<path d="M756 1122 c-3 -5 1 -9 9 -9 8 0 12 4 9 9 -3 4 -7 8 -9 8 -2 0 -6 -4
-9 -8z"/>
<path d="M625 1100 c-9 -14 24 -25 37 -12 6 6 6 12 -3 17 -8 5 -10 4 -5 -3 4
-7 1 -12 -9 -12 -9 0 -13 5 -10 10 3 6 4 10 1 10 -3 0 -8 -5 -11 -10z"/>
<path d="M1755 1077 c-17 -13 -13 -43 5 -32 4 3 11 -2 14 -11 4 -12 2 -15 -9
-11 -17 7 -30 -9 -15 -18 6 -4 7 -11 4 -17 -4 -7 -2 -8 5 -4 6 4 9 11 6 16 -3
4 2 11 10 14 13 4 14 10 5 26 -6 11 -16 17 -22 14 -7 -5 -8 -2 -4 5 5 7 14 10
22 7 8 -3 11 0 7 10 -6 17 -5 17 -28 1z"/>
<path d="M780 1070 c-8 -5 -12 -11 -10 -14 3 -2 14 2 24 10 22 15 10 19 -14 4z"/>
<path d="M1893 1045 c0 -8 4 -12 9 -9 5 3 6 10 3 15 -9 13 -12 11 -12 -6z"/>
<path d="M662 1045 c4 -4 3 -14 -3 -22 -6 -7 -8 -13 -4 -13 4 0 1 -8 -6 -17
-13 -16 -12 -17 4 -4 9 8 15 16 12 19 -3 3 0 11 6 18 7 9 6 14 -3 20 -7 4 -10
4 -6 -1z"/>
<path d="M1875 1010 c-3 -6 1 -7 9 -4 17 6 22 -11 7 -20 -5 -3 -7 -15 -4 -26
3 -12 0 -20 -8 -20 -7 0 -10 -2 -7 -5 10 -10 37 7 32 20 -3 7 -1 16 5 20 8 4
8 12 1 26 -12 21 -25 25 -35 9z"/>
<path d="M1699 963 c-12 -14 -12 -16 0 -8 11 6 13 4 8 -8 -9 -23 0 -21 13 2
13 25 -3 36 -21 14z"/>
<path d="M3 946 c0 -8 12 -13 31 -12 17 1 30 5 29 9 -2 4 -3 10 -3 14 0 4 -5
2 -12 -5 -7 -7 -17 -8 -28 -2 -12 6 -17 5 -17 -4z"/>
<path d="M85 940 c-11 -12 -13 -20 -5 -25 6 -3 10 -3 9 2 -3 19 2 25 14 15 7
-6 18 -8 24 -4 9 6 7 11 -6 19 -15 10 -22 8 -36 -7z"/>
<path d="M155 949 c-4 -6 -5 -12 -2 -15 2 -3 7 2 10 11 7 17 1 20 -8 4z"/>
<path d="M2397 953 c-12 -12 -7 -25 7 -20 8 3 17 1 20 -6 3 -8 5 -8 5 -1 1 15
-24 36 -32 27z"/>
<path d="M211 934 c0 -11 3 -14 6 -6 3 7 2 16 -1 19 -3 4 -6 -2 -5 -13z"/>
<path d="M940 928 c-10 -21 -10 -21 3 -5 15 18 33 24 22 8 -3 -5 0 -13 6 -17
8 -5 9 -3 4 6 -6 10 -3 12 11 7 18 -7 18 -7 0 8 -26 20 -33 19 -46 -7z"/>
<path d="M858 928 c5 -5 16 -8 23 -6 8 3 3 7 -10 11 -17 4 -21 3 -13 -5z"/>
<path d="M1105 929 c-4 -6 -5 -12 -2 -15 2 -3 7 2 10 11 7 17 1 20 -8 4z"/>
<path d="M1198 933 c6 -2 9 -10 6 -15 -4 -7 -2 -8 5 -4 13 9 5 26 -12 25 -9 0
-8 -2 1 -6z"/>
<path d="M1438 933 c6 -2 9 -10 6 -15 -4 -7 -2 -8 5 -4 13 9 5 26 -12 25 -9 0
-8 -2 1 -6z"/>
<path d="M1535 930 c3 -5 8 -10 11 -10 2 0 4 5 4 10 0 6 -5 10 -11 10 -5 0 -7
-4 -4 -10z"/>
<path d="M331 884 c0 -11 3 -14 6 -6 3 7 2 16 -1 19 -3 4 -6 -2 -5 -13z"/>
<path d="M662 880 c-7 -11 -8 -20 -3 -20 9 0 24 30 18 36 -1 2 -8 -6 -15 -16z"/>
<path d="M370 879 c0 -5 5 -7 12 -3 8 5 9 2 5 -9 -3 -9 -1 -19 5 -23 6 -4 8
-3 4 4 -3 6 2 15 11 21 10 6 16 11 13 11 -38 8 -50 8 -50 -1z"/>
<path d="M1867 879 c7 -7 15 -10 18 -7 3 3 -2 9 -12 12 -14 6 -15 5 -6 -5z"/>
<path d="M2150 881 c0 -5 7 -12 16 -15 24 -9 27 -7 10 9 -17 17 -26 19 -26 6z"/>
<path d="M2190 850 c-8 -5 -12 -12 -9 -15 4 -3 12 1 19 10 14 17 11 19 -10 5z"/>
<path d="M345 840 c-3 -6 1 -7 9 -4 18 7 21 14 7 14 -6 0 -13 -4 -16 -10z"/>
<path d="M2200 820 c-9 -6 -10 -10 -3 -10 6 0 15 5 18 10 8 12 4 12 -15 0z"/>
<path d="M666 801 c-4 -5 -2 -12 3 -15 5 -4 12 -2 15 3 4 5 2 12 -3 15 -5 4
-12 2 -15 -3z"/>
<path d="M656 755 c-3 -8 -1 -15 4 -15 6 0 10 7 10 15 0 8 -2 15 -4 15 -2 0
-6 -7 -10 -15z"/>
<path d="M2180 755 c-7 -8 -16 -13 -20 -10 -5 3 -11 1 -14 -4 -14 -22 13 -19
38 4 15 14 23 25 18 25 -5 0 -15 -7 -22 -15z"/>
<path d="M2215 749 c-4 -6 -5 -12 -2 -15 2 -3 7 2 10 11 7 17 1 20 -8 4z"/>
<path d="M336 742 c-3 -5 1 -9 9 -9 8 0 12 4 9 9 -3 4 -7 8 -9 8 -2 0 -6 -4
-9 -8z"/>
<path d="M2175 691 c-3 -5 -2 -12 3 -15 5 -3 9 1 9 9 0 17 -3 19 -12 6z"/>
<path d="M366 682 c-3 -5 1 -9 9 -9 8 0 15 4 15 9 0 4 -4 8 -9 8 -6 0 -12 -4
-15 -8z"/>
<path d="M650 680 c0 -16 17 -19 34 -7 14 11 13 12 -9 13 -14 1 -25 -2 -25 -6z"/>
<path d="M391 644 c0 -11 3 -14 6 -6 3 7 2 16 -1 19 -3 4 -6 -2 -5 -13z"/>
<path d="M2196 647 c3 -10 9 -15 12 -12 3 3 0 11 -7 18 -10 9 -11 8 -5 -6z"/>
<path d="M650 640 c0 -4 7 -7 15 -6 23 3 26 12 5 13 -11 1 -20 -2 -20 -7z"/>
<path d="M676 607 c3 -10 9 -15 12 -12 3 3 0 11 -7 18 -10 9 -11 8 -5 -6z"/>
<path d="M397 595 c-4 -8 -3 -16 1 -19 4 -3 9 4 9 15 2 23 -3 25 -10 4z"/>
<path d="M2157 596 c-17 -13 -17 -14 0 -20 10 -4 14 -4 10 0 -4 4 -2 13 4 21
14 17 9 16 -14 -1z"/>
<path d="M2110 546 c14 -18 13 -19 -1 -14 -26 10 -58 -18 -51 -44 l5 -22 8 23
c7 18 12 20 28 11 14 -7 22 -7 26 0 4 6 3 10 -2 9 -18 -3 -33 2 -33 11 0 5 6
7 14 4 22 -8 28 12 8 27 -16 13 -16 13 -2 -5z"/>
<path d="M414 529 c0 -10 4 -19 8 -19 4 0 8 6 8 14 0 8 -4 17 -8 20 -4 2 -8
-4 -8 -15z"/>
<path d="M650 537 c-19 -15 -25 -47 -9 -47 7 0 9 3 6 6 -10 11 13 45 25 38 7
-4 8 -3 4 4 -9 14 -7 14 -26 -1z"/>
<path d="M470 509 c0 -5 5 -7 10 -4 6 3 10 8 10 11 0 2 -4 4 -10 4 -5 0 -10
-5 -10 -11z"/>
<path d="M455 480 c3 -5 8 -10 11 -10 2 0 4 5 4 10 0 6 -5 10 -11 10 -5 0 -7
-4 -4 -10z"/>
<path d="M1960 460 c-12 -7 -10 -9 7 -7 12 0 19 5 17 9 -6 10 -6 10 -24 -2z"/>
</g>
</svg>
